<svg xmlns="http://www.w3.org/2000/svg" xmlns:v="https://svgstorm.com"
viewBox = "0 0 1920 1333"
width="1920"
height="1333">
<g fill="None" fill-opacity="0.0" stroke="#000000" stroke-opacity="0.00" stroke-width="0.3"><path d="
M 0.00 1333.00 
L 1920.00 1333.00
L 1920.00 0.00
L 0.00 0.00
L 0.00 1333.00
M 980.00 157.00 
C 980.25 157.26 980.00 158.00 980.00 158.00
C 986.84 157.63 992.06 159.75 997.00 158.00
C 1002.70 160.89 1013.42 162.24 1021.23 164.77 C 1029.04 167.30 1037.20 168.09 1045.25 172.20 C 1053.29 176.31 1057.47 177.02 1064.30 181.71 C 1071.14 186.40 1076.72 186.67 1083.70 191.35 C 1090.68 196.04 1095.64 202.94 1102.92 207.09 C 1110.20 211.24 1115.69 221.31 1123.75 227.25 C 1131.81 233.18 1134.24 242.10 1142.00 246.00
C 1139.48 249.27 1143.71 250.82 1146.00 251.00
C 1147.11 258.08 1154.41 266.03 1157.71 272.30 C 1161.02 278.58 1164.07 287.02 1167.64 293.71 C 1171.22 300.40 1171.04 306.59 1174.35 314.70 C 1177.66 322.80 1178.27 332.10 1182.00 341.00
C 1180.34 343.98 1181.66 352.57 1182.33 356.67 C 1183.00 360.77 1183.91 367.09 1183.00 374.00
C 1196.93 374.06 1212.21 373.91 1226.00 374.00 C 1239.79 374.09 1255.71 373.84 1269.00 374.00 C 1282.29 374.16 1296.55 373.52 1307.75 374.40 C 1318.96 375.27 1321.24 379.76 1329.75 382.59 C 1338.26 385.43 1345.07 394.93 1351.57 401.77 C 1358.07 408.61 1357.45 415.33 1363.00 422.00
C 1364.57 435.86 1365.44 450.78 1365.40 466.74 C 1365.37 482.70 1368.78 499.40 1369.00 516.00 C 1369.22 532.60 1370.78 546.58 1371.07 563.08 C 1371.35 579.58 1370.78 600.37 1375.00 615.00
C 1360.63 614.97 1343.35 614.97 1329.00 615.00
C 1331.10 593.48 1327.07 570.82 1326.22 550.78 C 1325.37 530.74 1324.07 507.21 1323.01 487.99 C 1321.94 468.78 1323.65 447.27 1318.42 432.23 C 1313.20 417.19 1300.50 417.03 1280.00 416.00 C 1259.50 414.97 1231.38 416.46 1209.00 416.00 C 1186.62 415.54 1160.22 416.22 1137.00 416.00 C 1113.78 415.78 1088.55 416.12 1065.00 416.00 C 1041.45 415.88 1017.69 416.10 994.00 416.00 C 970.31 415.90 945.73 416.14 922.00 416.00 C 898.27 415.86 874.71 416.28 851.00 416.00 C 827.29 415.72 802.60 416.60 779.00 416.00 C 755.40 415.40 730.23 417.31 707.00 416.00 C 683.78 414.69 660.81 418.01 641.00 419.00 C 621.19 419.99 606.48 419.18 604.20 438.25 C 601.92 457.31 603.81 476.97 602.00 497.00 C 600.19 517.03 598.78 536.11 597.67 556.67 C 596.56 577.23 595.46 596.70 596.00 615.00
C 580.67 615.00 565.33 615.00 550.00 615.00
C 551.73 606.98 550.78 601.16 551.80 592.75 C 552.82 584.34 553.07 574.74 553.99 565.99 C 554.92 557.24 553.57 549.08 554.98 539.97 C 556.39 530.87 554.11 523.42 556.90 514.90 C 559.69 506.39 554.19 497.05 557.11 490.11 C 560.03 483.17 556.70 472.72 558.00 465.00 C 559.30 457.28 560.60 447.47 561.00 439.00 C 561.40 430.53 560.92 424.65 563.35 418.31 C 565.78 411.96 568.23 411.14 571.30 405.30 C 574.37 399.47 577.51 395.30 582.75 391.61 C 587.99 387.92 593.02 384.09 596.00 380.00
C 606.51 378.45 607.12 375.61 618.25 374.80 C 629.37 374.00 645.33 373.85 658.00 374.00 C 670.67 374.15 685.74 373.92 699.00 374.00 C 712.26 374.08 727.55 373.94 741.00 374.00
C 740.50 366.66 740.04 358.87 741.22 351.78 C 742.40 344.69 743.28 339.92 744.20 333.75 C 745.12 327.59 747.59 323.62 748.19 317.75 C 748.79 311.88 751.57 309.63 752.21 304.76 C 752.85 299.90 756.53 298.98 757.76 293.61 C 758.99 288.24 760.89 287.70 763.30 281.29 C 765.72 274.87 772.31 263.17 777.08 256.08 C 781.86 249.00 782.41 248.43 785.26 243.26 C 788.10 238.08 793.62 235.89 797.25 230.25 C 800.88 224.61 804.30 223.98 809.25 218.25 C 814.20 212.52 818.48 208.69 822.19 205.75 C 825.90 202.81 830.26 197.99 834.00 199.00
C 843.88 189.03 854.64 184.04 867.23 178.23 C 879.82 172.42 888.87 167.69 901.30 164.29 C 913.74 160.89 930.86 158.40 945.00 158.00
C 944.96 158.00 945.00 157.00 945.00 157.00
C 947.62 154.29 957.98 155.88 962.00 156.00 C 966.02 156.12 977.27 154.19 980.00 157.00
M 612.00 737.00 
C 610.99 744.24 610.40 752.38 611.00 760.00
C 613.53 791.89 638.13 818.30 672.00 816.00
C 672.00 790.00 672.00 764.00 672.00 738.00
C 674.63 732.57 689.12 737.14 696.00 736.00 C 702.88 734.86 714.12 736.52 722.00 736.00 C 729.88 735.48 739.65 736.24 748.00 736.00 C 756.35 735.76 765.38 736.12 774.00 736.00 C 782.62 735.88 792.29 736.09 801.00 736.00
C 801.00 775.66 801.00 815.34 801.00 855.00
C 754.17 854.33 706.01 856.34 660.00 854.00
C 633.23 856.51 607.70 842.94 588.25 824.75 C 568.79 806.57 562.65 775.91 563.00 749.00 C 563.35 722.09 569.48 694.37 589.75 674.75 C 610.02 655.13 636.74 649.64 664.00 647.00
C 668.06 646.61 673.26 646.00 678.00 646.00
C 715.66 646.00 753.34 646.00 791.00 646.00
C 791.00 658.67 791.00 671.33 791.00 684.00
C 755.50 684.03 709.45 683.96 675.00 684.00 C 640.55 684.04 615.34 703.88 612.00 737.00
M 1099.00 763.00 
C 1098.33 755.80 1097.30 746.92 1098.00 739.00
C 1101.77 696.11 1124.43 659.78 1170.07 651.07 C 1215.72 642.36 1276.41 647.13 1325.00 646.00
C 1325.00 658.67 1325.00 671.33 1325.00 684.00
C 1285.37 683.73 1241.89 683.91 1203.00 685.00 C 1164.10 686.08 1145.97 716.75 1146.00 752.00 C 1146.03 787.25 1168.24 817.50 1206.00 816.00
C 1206.00 789.33 1206.00 762.67 1206.00 736.00
C 1249.67 736.00 1293.33 736.00 1337.00 736.00
C 1337.00 775.66 1337.00 815.34 1337.00 855.00
C 1302.35 855.56 1259.87 854.25 1226.00 855.00 C 1192.13 855.75 1162.44 853.15 1135.92 836.08 C 1109.40 819.01 1101.13 791.28 1099.00 763.00
M 1046.00 673.00 
C 1046.00 725.00 1046.00 777.00 1046.00 829.00
C 1034.25 827.34 1020.73 827.34 1009.00 829.00
C 972.94 791.06 938.03 752.64 900.00 717.00
C 900.00 754.33 900.00 791.67 900.00 829.00
C 888.42 829.64 876.14 827.70 865.00 830.00
C 865.00 778.00 865.00 726.00 865.00 674.00
C 878.10 676.25 898.86 671.41 907.75 682.25 C 916.64 693.09 924.67 698.11 933.25 707.75 C 941.82 717.40 950.44 724.04 958.75 733.25 C 967.06 742.46 974.83 750.64 983.75 759.25 C 992.67 767.85 1000.79 776.94 1010.00 785.00
C 1012.33 748.17 1010.34 710.25 1011.00 673.00
C 1022.67 673.00 1034.33 673.00 1046.00 673.00
M 703.00 906.00 
C 707.84 918.64 688.55 912.86 683.00 914.00 C 677.45 915.14 671.16 912.63 667.25 918.25 C 663.33 923.87 666.85 931.02 667.00 937.00
C 671.36 938.23 673.21 943.06 679.00 942.00
C 675.79 936.22 677.49 922.76 684.00 924.00 C 690.51 925.24 704.85 921.30 705.97 927.03 C 707.10 932.76 708.57 948.61 702.97 949.97 C 697.37 951.34 684.20 950.38 678.00 950.00 C 671.80 949.62 668.91 947.43 663.77 945.79 C 658.63 944.14 656.98 937.13 656.00 931.00 C 655.02 924.87 659.28 918.28 659.00 914.00
C 665.22 910.60 668.83 908.72 676.01 907.99 C 683.18 907.27 694.19 904.39 703.00 906.00
M 799.00 906.00 
C 799.09 920.54 798.88 936.18 799.00 950.00
C 784.09 949.89 769.29 951.47 761.00 942.00
C 759.55 932.32 762.41 924.54 770.00 918.00
C 775.16 920.67 784.06 918.13 791.00 919.00
C 790.89 914.60 791.52 910.05 790.00 906.00
C 793.00 906.00 796.00 906.00 799.00 906.00
M 1068.00 906.00 
C 1070.19 918.58 1050.93 913.78 1043.30 914.64 C 1035.67 915.50 1030.50 917.61 1030.98 927.03 C 1031.46 936.45 1033.08 940.04 1043.00 941.00
C 1040.95 930.76 1042.88 922.88 1053.00 924.00 C 1063.12 925.12 1072.65 921.31 1071.00 933.00 C 1069.35 944.69 1075.79 951.01 1061.00 950.00 C 1046.21 948.99 1032.00 951.76 1024.75 942.25 C 1017.49 932.75 1020.36 917.51 1027.78 911.44 C 1035.19 905.36 1054.82 907.60 1068.00 906.00
M 1217.00 949.00 
C 1209.45 949.43 1199.50 948.35 1192.75 949.20 C 1186.01 950.05 1185.65 942.52 1179.00 942.00
C 1179.55 936.43 1178.57 930.05 1179.00 925.00
C 1182.14 925.88 1186.73 920.75 1188.00 918.00
C 1193.16 920.67 1202.06 918.13 1209.00 919.00
C 1209.00 914.67 1209.00 910.33 1209.00 906.00
C 1220.23 903.58 1216.69 915.24 1217.00 923.00 C 1217.31 930.76 1216.77 941.02 1217.00 949.00
M 906.00 942.00 
C 905.21 938.83 903.22 929.59 905.00 926.00
C 901.10 925.07 895.94 927.83 896.01 921.99 C 896.08 916.15 900.90 918.53 905.00 918.00
C 905.00 915.00 905.00 912.00 905.00 909.00
C 908.00 909.00 911.00 909.00 914.00 909.00
C 914.00 912.33 914.00 915.67 914.00 919.00
C 917.94 919.16 926.78 914.18 927.97 921.03 C 929.16 927.88 918.74 925.98 914.00 926.00
C 911.46 937.83 915.62 946.76 929.00 943.00
C 930.48 956.07 905.64 950.00 906.00 942.00
M 1159.00 919.00 
C 1164.81 919.02 1170.40 921.04 1172.97 929.03 C 1175.55 937.02 1169.23 942.89 1166.00 948.00
C 1162.84 945.34 1163.83 951.17 1160.00 948.00
C 1160.04 948.00 1160.00 949.00 1160.00 949.00
C 1157.93 951.14 1143.01 951.07 1141.00 949.00
C 1140.75 948.74 1141.00 948.00 1141.00 948.00
C 1136.88 948.08 1137.68 947.83 1133.00 947.00
C 1132.37 941.85 1126.56 939.83 1128.00 933.00 C 1129.45 926.17 1129.13 925.91 1133.00 920.00
C 1133.61 923.07 1138.95 920.16 1137.00 918.00
C 1138.56 917.59 1139.69 918.46 1141.00 919.00
C 1143.01 918.46 1146.01 917.00 1150.00 917.00 C 1153.99 917.00 1156.93 918.44 1159.00 919.00
M 1257.00 949.00 
C 1253.26 950.71 1245.47 950.57 1241.00 950.00 C 1236.53 949.43 1227.08 952.08 1224.00 949.00
C 1222.29 947.29 1223.24 944.39 1223.00 942.00
C 1228.67 944.24 1237.09 942.38 1243.00 943.00 C 1248.91 943.62 1260.23 943.91 1254.00 936.00
C 1243.31 937.50 1230.06 939.25 1223.00 932.00
C 1223.57 927.14 1223.96 924.20 1224.00 921.00
C 1228.78 918.50 1233.98 915.97 1242.00 917.00 C 1250.02 918.03 1264.41 912.55 1262.00 925.00
C 1252.89 924.15 1241.36 926.44 1232.00 924.00
C 1230.48 926.03 1230.71 928.96 1232.00 931.00
C 1239.54 928.04 1253.43 930.95 1261.00 931.00
C 1264.54 934.44 1264.14 939.35 1264.00 944.00
C 1260.91 941.88 1260.28 949.35 1257.00 949.00
M 743.00 926.00 
C 737.96 926.46 720.29 928.29 717.00 925.00
C 715.29 923.29 716.24 920.39 716.00 918.00
C 724.89 920.19 744.91 914.10 751.74 920.26 C 758.57 926.41 750.95 941.49 754.00 950.00
C 741.71 950.06 727.33 950.30 717.00 949.00
C 714.09 945.29 712.44 941.87 712.00 936.00
C 714.11 939.96 715.08 933.99 714.00 932.00
C 722.24 929.72 735.76 928.82 746.00 931.00
C 745.65 929.23 745.74 923.99 743.00 926.00
M 835.00 948.00 
C 835.04 948.00 835.00 949.00 835.00 949.00
C 832.28 951.82 823.91 949.61 821.00 949.00
C 813.61 947.47 808.46 946.23 806.65 937.31 C 804.83 928.38 809.45 924.35 816.00 918.00
C 825.33 918.00 834.67 918.00 844.00 918.00
C 842.29 930.77 842.41 945.23 844.00 958.00
C 842.38 958.35 839.45 960.07 841.00 962.00
C 832.73 961.61 822.94 962.27 814.00 962.00
C 809.38 945.72 844.15 964.21 835.00 948.00
M 891.00 949.00 
C 887.57 952.43 880.41 948.25 876.00 950.00 C 871.59 951.75 864.60 948.23 864.00 948.00
C 850.99 947.46 847.01 935.03 852.59 925.25 C 858.18 915.48 877.13 918.49 888.00 918.00
C 886.34 919.71 891.17 923.59 893.00 922.00
C 892.66 926.32 894.66 936.51 886.77 936.77 C 878.89 937.03 868.35 934.97 860.00 936.00
C 859.18 939.97 863.17 938.56 862.00 942.00
C 871.45 943.54 882.58 943.74 892.00 942.00
C 891.48 944.19 893.13 947.62 891.00 949.00
M 992.00 925.00 
C 995.12 931.11 992.67 935.93 994.00 943.00 C 995.33 950.07 986.99 952.66 985.00 948.00
C 980.42 937.26 990.99 924.68 975.00 924.00 C 959.01 923.32 964.94 935.42 964.00 948.00
C 952.83 951.03 956.69 940.30 956.00 933.00 C 955.31 925.70 954.71 916.23 964.00 918.00 C 973.29 919.77 978.11 916.67 987.00 918.00
C 987.49 920.70 991.63 921.70 992.00 925.00
M 1110.00 949.00 
C 1104.18 950.21 1095.74 950.86 1090.00 949.00
C 1085.50 947.54 1079.53 944.55 1078.42 939.23 C 1077.32 933.91 1077.49 925.92 1083.75 921.75 C 1090.02 917.59 1099.92 920.31 1108.00 919.00 C 1116.08 917.69 1116.16 923.15 1122.00 926.00
C 1122.92 930.80 1120.57 936.13 1122.00 942.00
C 1116.08 943.60 1116.41 949.87 1110.00 949.00
M 1353.00 1035.00 
C 1352.73 1032.18 1352.73 1028.76 1353.00 1026.00
C 1351.64 1011.99 1351.38 997.27 1350.00 983.00
C 1349.77 980.58 1349.00 977.09 1349.00 974.00
C 1349.00 965.82 1349.83 959.12 1348.00 952.00
C 1363.00 952.00 1378.00 952.00 1393.00 952.00
C 1394.68 967.85 1394.34 984.51 1395.00 1000.00 C 1395.66 1015.50 1397.37 1034.41 1397.00 1050.00 C 1396.63 1065.59 1403.32 1079.54 1400.00 1097.00
C 1401.93 1106.16 1403.54 1118.48 1403.00 1130.00 C 1402.46 1141.52 1403.94 1155.17 1402.00 1166.00
C 1399.95 1177.43 1396.09 1180.63 1391.76 1187.77 C 1387.44 1194.91 1381.63 1200.51 1374.75 1205.19 C 1367.88 1209.88 1362.07 1213.09 1353.75 1214.20 C 1345.43 1215.31 1331.65 1216.73 1319.00 1216.00 C 1306.35 1215.27 1290.43 1216.33 1277.00 1216.00 C 1263.57 1215.67 1248.83 1216.15 1235.00 1216.00 C 1221.17 1215.86 1205.99 1216.07 1192.00 1216.00 C 1178.01 1215.93 1164.03 1216.03 1150.00 1216.00 C 1135.97 1215.97 1122.10 1216.01 1108.00 1216.00 C 1093.90 1215.99 1079.11 1216.01 1065.00 1216.00 C 1050.89 1215.99 1037.09 1216.00 1023.00 1216.00 C 1008.91 1216.00 995.12 1216.00 981.00 1216.00 C 966.88 1216.00 952.12 1216.00 938.00 1216.00 C 923.88 1216.00 910.09 1216.00 896.00 1216.00 C 881.91 1216.00 868.12 1216.00 854.00 1216.00 C 839.88 1216.00 825.11 1216.00 811.00 1216.00 C 796.89 1216.00 783.05 1216.00 769.00 1216.00 C 754.95 1216.00 741.03 1215.99 727.00 1216.00 C 712.97 1216.01 697.91 1215.98 684.00 1216.00 C 670.09 1216.02 655.61 1215.96 642.00 1216.00 C 628.39 1216.04 613.04 1215.91 600.00 1216.00 C 586.96 1216.09 574.92 1217.04 565.71 1213.29 C 556.49 1209.55 554.57 1209.41 545.75 1203.25 C 536.94 1197.08 534.04 1190.95 529.30 1183.70 C 524.56 1176.44 526.62 1170.71 521.00 1163.00
C 522.55 1156.41 519.47 1149.68 522.00 1141.00 C 524.52 1132.32 521.78 1120.54 523.11 1112.11 C 524.44 1103.68 523.68 1094.18 524.80 1085.75 C 525.92 1077.33 525.85 1068.00 525.94 1058.92 C 526.02 1049.84 527.80 1039.93 528.00 1031.00 C 528.19 1022.07 529.14 1012.83 529.00 1004.00 C 528.86 995.16 530.45 986.98 531.00 978.00 C 531.55 969.02 531.05 960.98 531.00 952.00
C 546.00 952.00 561.00 952.00 576.00 952.00
C 576.83 965.23 572.67 975.84 573.22 989.22 C 573.77 1002.60 571.70 1013.19 572.97 1026.03 C 574.24 1038.88 567.86 1051.80 569.00 1065.00 C 570.14 1078.20 568.77 1092.40 567.01 1104.01 C 565.25 1115.63 568.10 1130.04 566.00 1142.00 C 563.90 1153.96 567.09 1166.80 577.92 1171.13 C 588.75 1175.46 604.52 1172.25 619.00 1173.00 C 633.48 1173.75 650.87 1172.66 666.00 1173.00 C 681.13 1173.34 697.59 1172.85 713.00 1173.00 C 728.41 1173.15 744.48 1172.93 760.00 1173.00 C 775.52 1173.07 791.47 1172.97 807.00 1173.00 C 822.53 1173.03 837.44 1172.99 853.00 1173.00 C 868.56 1173.01 884.39 1172.99 900.00 1173.00 C 915.61 1173.01 931.36 1173.00 947.00 1173.00 C 962.64 1173.00 978.35 1173.00 994.00 1173.00 C 1009.65 1173.00 1025.35 1173.00 1041.00 1173.00 C 1056.65 1173.00 1072.37 1173.00 1088.00 1173.00 C 1103.63 1173.00 1119.40 1173.00 1135.00 1173.00 C 1150.60 1173.00 1166.48 1173.00 1182.00 1173.00 C 1197.52 1173.00 1213.66 1173.00 1229.00 1173.00 C 1244.34 1173.00 1261.06 1173.01 1276.00 1173.00 C 1290.94 1172.99 1308.94 1173.01 1323.00 1173.00 C 1337.06 1172.99 1350.80 1174.84 1354.00 1163.00
C 1365.00 1155.27 1358.50 1138.00 1358.00 1125.00 C 1357.50 1112.00 1356.28 1094.94 1357.00 1080.00 C 1357.72 1065.06 1352.61 1049.57 1353.00 1035.00
M 816.00 1013.00 
C 811.87 1016.37 824.12 1013.04 821.00 1019.00
C 805.09 1020.73 795.03 1032.00 795.00 1046.00
C 790.14 1041.43 787.79 1030.97 793.39 1024.25 C 799.00 1017.52 807.54 1012.72 816.00 1013.00
M 1120.00 1016.00 
C 1126.94 1024.38 1135.27 1037.40 1126.00 1046.00
C 1125.13 1037.75 1123.71 1033.95 1116.25 1026.75 C 1108.79 1019.56 1104.48 1021.10 1098.00 1016.00
C 1101.64 1015.30 1104.51 1013.23 1110.01 1013.01 C 1115.51 1012.78 1114.47 1017.48 1120.00 1016.00
M 1113.00 1033.00 
C 1112.58 1045.66 1094.20 1049.92 1088.25 1056.26 C 1082.29 1062.61 1072.69 1067.25 1065.25 1071.39 C 1057.81 1075.53 1049.70 1081.26 1041.43 1083.79 C 1033.16 1086.31 1025.74 1092.17 1015.70 1094.70 C 1005.65 1097.23 994.35 1099.05 981.93 1100.93 C 969.50 1102.80 951.88 1101.36 939.78 1100.22 C 927.68 1099.08 915.50 1098.72 906.32 1095.66 C 897.15 1092.61 885.94 1089.32 876.92 1085.07 C 867.91 1080.82 862.85 1077.44 853.75 1073.20 C 844.65 1068.96 836.36 1062.04 829.81 1056.75 C 823.27 1051.46 808.97 1046.80 806.00 1034.00
C 808.37 1035.22 808.29 1031.75 811.00 1032.00
C 821.41 1040.95 828.16 1047.57 837.92 1053.13 C 847.67 1058.69 855.87 1066.26 864.13 1069.92 C 872.39 1073.58 880.04 1077.52 888.75 1080.39 C 897.47 1083.27 907.51 1088.33 918.00 1088.00
C 919.48 1092.91 921.78 1088.18 931.01 1090.99 C 940.23 1093.81 958.85 1095.02 972.00 1094.00 C 985.15 1092.98 992.40 1090.19 1003.23 1088.78 C 1014.05 1087.37 1024.50 1080.67 1032.08 1079.93 C 1039.65 1079.19 1037.33 1074.49 1043.92 1073.87 C 1050.50 1073.24 1054.01 1069.36 1059.23 1066.79 C 1064.45 1064.21 1067.56 1061.30 1071.70 1058.36 C 1075.84 1055.41 1081.00 1055.24 1084.75 1050.61 C 1088.50 1045.98 1101.89 1038.77 1107.00 1031.00
C 1109.72 1031.95 1110.58 1031.52 1113.00 1033.00 Z"/>
</g>
<g fill="None" fill-opacity="0.0" stroke="#000000" stroke-opacity="0.34" stroke-width="0.3"><path d="
M 945.00 157.00 
C 956.04 156.00 968.96 156.00 980.00 157.00
C 977.27 154.19 966.02 156.12 962.00 156.00 C 957.98 155.88 947.62 154.29 945.00 157.00 Z"/>
</g>
<g fill="None" fill-opacity="0.0" stroke="#000000" stroke-opacity="0.99" stroke-width="0.3"><path d="
M 980.00 158.00 
C 968.51 158.62 956.50 158.44 945.00 158.00
C 930.86 158.40 913.74 160.89 901.30 164.29 C 888.87 167.69 879.82 172.42 867.23 178.23 C 854.64 184.04 843.88 189.03 834.00 199.00
C 830.26 197.99 825.90 202.81 822.19 205.75 C 818.48 208.69 814.20 212.52 809.25 218.25 C 804.30 223.98 800.88 224.61 797.25 230.25 C 793.62 235.89 788.10 238.08 785.26 243.26 C 782.41 248.43 781.86 249.00 777.08 256.08 C 772.31 263.17 765.72 274.87 763.30 281.29 C 760.89 287.70 758.99 288.24 757.76 293.61 C 756.53 298.98 752.85 299.90 752.21 304.76 C 751.57 309.63 748.79 311.88 748.19 317.75 C 747.59 323.62 745.12 327.59 744.20 333.75 C 743.28 339.92 742.40 344.69 741.22 351.78 C 740.04 358.87 740.50 366.66 741.00 374.00
C 727.55 373.94 712.26 374.08 699.00 374.00 C 685.74 373.92 670.67 374.15 658.00 374.00 C 645.33 373.85 629.37 374.00 618.25 374.80 C 607.12 375.61 606.51 378.45 596.00 380.00
C 593.02 384.09 587.99 387.92 582.75 391.61 C 577.51 395.30 574.37 399.47 571.30 405.30 C 568.23 411.14 565.78 411.96 563.35 418.31 C 560.92 424.65 561.40 430.53 561.00 439.00 C 560.60 447.47 559.30 457.28 558.00 465.00 C 556.70 472.72 560.03 483.17 557.11 490.11 C 554.19 497.05 559.69 506.39 556.90 514.90 C 554.11 523.42 556.39 530.87 554.98 539.97 C 553.57 549.08 554.92 557.24 553.99 565.99 C 553.07 574.74 552.82 584.34 551.80 592.75 C 550.78 601.16 551.73 606.98 550.00 615.00
C 565.33 615.00 580.67 615.00 596.00 615.00
C 595.46 596.70 596.56 577.23 597.67 556.67 C 598.78 536.11 600.19 517.03 602.00 497.00 C 603.81 476.97 601.92 457.31 604.20 438.25 C 606.48 419.18 621.19 419.99 641.00 419.00 C 660.81 418.01 683.78 414.69 707.00 416.00 C 730.23 417.31 755.40 415.40 779.00 416.00 C 802.60 416.60 827.29 415.72 851.00 416.00 C 874.71 416.28 898.27 415.86 922.00 416.00 C 945.73 416.14 970.31 415.90 994.00 416.00 C 1017.69 416.10 1041.45 415.88 1065.00 416.00 C 1088.55 416.12 1113.78 415.78 1137.00 416.00 C 1160.22 416.22 1186.62 415.54 1209.00 416.00 C 1231.38 416.46 1259.50 414.97 1280.00 416.00 C 1300.50 417.03 1313.20 417.19 1318.42 432.23 C 1323.65 447.27 1321.94 468.78 1323.01 487.99 C 1324.07 507.21 1325.37 530.74 1326.22 550.78 C 1327.07 570.82 1331.10 593.48 1329.00 615.00
C 1343.35 614.97 1360.63 614.97 1375.00 615.00
C 1370.78 600.37 1371.35 579.58 1371.07 563.08 C 1370.78 546.58 1369.22 532.60 1369.00 516.00 C 1368.78 499.40 1365.37 482.70 1365.40 466.74 C 1365.44 450.78 1364.57 435.86 1363.00 422.00
C 1357.45 415.33 1358.07 408.61 1351.57 401.77 C 1345.07 394.93 1338.26 385.43 1329.75 382.59 C 1321.24 379.76 1318.96 375.27 1307.75 374.40 C 1296.55 373.52 1282.29 374.16 1269.00 374.00 C 1255.71 373.84 1239.79 374.09 1226.00 374.00 C 1212.21 373.91 1196.93 374.06 1183.00 374.00
C 1183.91 367.09 1183.00 360.77 1182.33 356.67 C 1181.66 352.57 1180.34 343.98 1182.00 341.00
C 1178.27 332.10 1177.66 322.80 1174.35 314.70 C 1171.04 306.59 1171.22 300.40 1167.64 293.71 C 1164.07 287.02 1161.02 278.58 1157.71 272.30 C 1154.41 266.03 1147.11 258.08 1146.00 251.00
C 1143.71 250.82 1139.48 249.27 1142.00 246.00
C 1134.24 242.10 1131.81 233.18 1123.75 227.25 C 1115.69 221.31 1110.20 211.24 1102.92 207.09 C 1095.64 202.94 1090.68 196.04 1083.70 191.35 C 1076.72 186.67 1071.14 186.40 1064.30 181.71 C 1057.47 177.02 1053.29 176.31 1045.25 172.20 C 1037.20 168.09 1029.04 167.30 1021.23 164.77 C 1013.42 162.24 1002.70 160.89 997.00 158.00
C 992.06 159.75 986.84 157.63 980.00 158.00
M 995.00 202.00 
C 997.60 206.09 1002.48 205.77 1007.00 205.00
C 1006.23 208.50 1013.80 207.64 1018.25 209.19 C 1022.71 210.74 1024.84 212.66 1029.71 213.64 C 1034.59 214.63 1036.76 218.09 1042.77 220.24 C 1048.78 222.38 1060.27 229.40 1065.70 234.30 C 1071.12 239.20 1073.23 239.95 1078.25 244.75 C 1083.26 249.55 1087.28 251.77 1091.25 256.75 C 1095.22 261.73 1101.89 262.13 1101.00 269.00
C 1106.78 274.33 1113.52 283.77 1117.77 290.24 C 1122.02 296.70 1124.04 304.86 1127.19 312.25 C 1130.34 319.64 1133.57 329.37 1135.71 338.30 C 1137.84 347.22 1138.03 362.41 1141.00 374.00
C 1022.00 374.00 903.00 374.00 784.00 374.00
C 784.03 358.94 787.53 347.57 789.97 335.97 C 792.41 324.36 795.62 318.07 797.00 308.00
C 801.54 303.40 804.64 296.64 808.30 290.30 C 811.97 283.97 817.80 277.00 819.00 270.00
C 824.51 266.26 828.48 262.60 834.25 256.25 C 840.01 249.90 847.28 244.87 852.75 238.75 C 858.22 232.63 864.49 230.79 870.70 226.70 C 876.91 222.60 882.22 218.59 888.70 216.69 C 895.17 214.80 896.81 211.09 903.90 209.88 C 910.99 208.68 917.48 204.90 924.00 206.00
C 926.52 202.16 930.45 203.95 936.68 202.66 C 942.90 201.37 948.27 201.74 955.00 200.00 C 961.73 198.26 971.74 201.57 976.13 201.92 C 980.52 202.27 991.70 203.36 995.00 202.00 Z"/>
</g>
<g fill="None" fill-opacity="0.0" stroke="#000000" stroke-opacity="0.84" stroke-width="0.3"><path d="
M 945.00 158.00 
C 956.50 158.44 968.51 158.62 980.00 158.00
C 980.00 158.00 980.25 157.26 980.00 157.00
C 968.96 156.00 956.04 156.00 945.00 157.00
C 945.00 157.00 944.96 158.00 945.00 158.00 Z"/>
</g>
<g fill="None" fill-opacity="0.0" stroke="#000000" stroke-opacity="0.00" stroke-width="0.3"><path d="
M 995.00 202.00 
C 991.70 203.36 980.52 202.27 976.13 201.92 C 971.74 201.57 961.73 198.26 955.00 200.00 C 948.27 201.74 942.90 201.37 936.68 202.66 C 930.45 203.95 926.52 202.16 924.00 206.00
C 917.48 204.90 910.99 208.68 903.90 209.88 C 896.81 211.09 895.17 214.80 888.70 216.69 C 882.22 218.59 876.91 222.60 870.70 226.70 C 864.49 230.79 858.22 232.63 852.75 238.75 C 847.28 244.87 840.01 249.90 834.25 256.25 C 828.48 262.60 824.51 266.26 819.00 270.00
C 817.80 277.00 811.97 283.97 808.30 290.30 C 804.64 296.64 801.54 303.40 797.00 308.00
C 795.62 318.07 792.41 324.36 789.97 335.97 C 787.53 347.57 784.03 358.94 784.00 374.00
C 903.00 374.00 1022.00 374.00 1141.00 374.00
C 1138.03 362.41 1137.84 347.22 1135.71 338.30 C 1133.57 329.37 1130.34 319.64 1127.19 312.25 C 1124.04 304.86 1122.02 296.70 1117.77 290.24 C 1113.52 283.77 1106.78 274.33 1101.00 269.00
C 1101.89 262.13 1095.22 261.73 1091.25 256.75 C 1087.28 251.77 1083.26 249.55 1078.25 244.75 C 1073.23 239.95 1071.12 239.20 1065.70 234.30 C 1060.27 229.40 1048.78 222.38 1042.77 220.24 C 1036.76 218.09 1034.59 214.63 1029.71 213.64 C 1024.84 212.66 1022.71 210.74 1018.25 209.19 C 1013.80 207.64 1006.23 208.50 1007.00 205.00
C 1002.48 205.77 997.60 206.09 995.00 202.00 Z"/>
</g>
<g fill="None" fill-opacity="0.0" stroke="#FF9C5F" stroke-opacity="0.59" stroke-width="0.3"><path d="
M 664.00 647.00 
C 666.12 647.21 668.14 647.20 671.00 648.00 C 673.86 648.80 677.08 646.19 678.00 646.00
C 673.26 646.00 668.06 646.61 664.00 647.00 Z"/>
</g>
<g fill="None" fill-opacity="0.0" stroke="#FF9C5E" stroke-opacity="0.98" stroke-width="0.3"><path d="
M 664.00 647.00 
C 636.74 649.64 610.02 655.13 589.75 674.75 C 569.48 694.37 563.35 722.09 563.00 749.00 C 562.65 775.91 568.79 806.57 588.25 824.75 C 607.70 842.94 633.23 856.51 660.00 854.00
C 705.98 849.69 753.55 855.15 800.00 853.00
C 800.00 814.67 800.00 776.33 800.00 738.00
C 757.33 738.00 714.67 738.00 672.00 738.00
C 672.00 764.00 672.00 790.00 672.00 816.00
C 638.13 818.30 613.53 791.89 611.00 760.00
C 608.28 751.50 609.59 744.33 612.00 737.00
C 615.34 703.88 640.55 684.04 675.00 684.00 C 709.45 683.96 755.50 684.03 791.00 684.00
C 791.00 671.33 791.00 658.67 791.00 646.00
C 753.34 646.00 715.66 646.00 678.00 646.00
C 677.08 646.19 673.86 648.80 671.00 648.00 C 668.14 647.20 666.12 647.21 664.00 647.00
M 755.00 817.00 
C 754.74 817.25 754.00 817.00 754.00 817.00
C 741.33 817.00 728.67 817.00 716.00 817.00
C 716.00 803.00 716.00 789.00 716.00 775.00
C 716.98 772.59 728.86 774.16 734.00 774.00 C 739.14 773.84 749.45 773.50 755.00 774.00
C 758.12 777.01 756.12 790.35 756.00 795.00 C 755.88 799.65 758.22 813.87 755.00 817.00 Z"/>
</g>
<g fill="None" fill-opacity="0.0" stroke="#FF9C5E" stroke-opacity="0.96" stroke-width="0.3"><path d="
M 1098.00 739.00 
C 1098.80 745.39 1100.12 754.67 1099.00 763.00
C 1101.13 791.28 1109.40 819.01 1135.92 836.08 C 1162.44 853.15 1192.13 855.75 1226.00 855.00 C 1259.87 854.25 1302.35 855.56 1337.00 855.00
C 1337.00 815.34 1337.00 775.66 1337.00 736.00
C 1293.33 736.00 1249.67 736.00 1206.00 736.00
C 1206.00 762.67 1206.00 789.33 1206.00 816.00
C 1168.24 817.50 1146.03 787.25 1146.00 752.00 C 1145.97 716.75 1164.10 686.08 1203.00 685.00 C 1241.89 683.91 1285.37 683.73 1325.00 684.00
C 1325.00 671.33 1325.00 658.67 1325.00 646.00
C 1276.41 647.13 1215.72 642.36 1170.07 651.07 C 1124.43 659.78 1101.77 696.11 1098.00 739.00
M 1290.00 775.00 
C 1290.00 789.00 1290.00 803.00 1290.00 817.00
C 1277.00 817.00 1264.00 817.00 1251.00 817.00
C 1251.00 803.00 1251.00 789.00 1251.00 775.00
C 1264.00 775.00 1277.00 775.00 1290.00 775.00 Z"/>
</g>
<g fill="None" fill-opacity="0.0" stroke="#000000" stroke-opacity="0.98" stroke-width="0.3"><path d="
M 1046.00 673.00 
C 1034.33 673.00 1022.67 673.00 1011.00 673.00
C 1010.34 710.25 1012.33 748.17 1010.00 785.00
C 1000.79 776.94 992.67 767.85 983.75 759.25 C 974.83 750.64 967.06 742.46 958.75 733.25 C 950.44 724.04 941.82 717.40 933.25 707.75 C 924.67 698.11 916.64 693.09 907.75 682.25 C 898.86 671.41 878.10 676.25 865.00 674.00
C 865.00 726.00 865.00 778.00 865.00 830.00
C 876.14 827.70 888.42 829.64 900.00 829.00
C 900.00 791.67 900.00 754.33 900.00 717.00
C 938.03 752.64 972.94 791.06 1009.00 829.00
C 1020.73 827.34 1034.25 827.34 1046.00 829.00
C 1046.00 777.00 1046.00 725.00 1046.00 673.00 Z"/>
</g>
<g fill="None" fill-opacity="0.0" stroke="#FF9C5D" stroke-opacity="0.53" stroke-width="0.3"><path d="
M 672.00 738.00 
C 714.67 738.00 757.33 738.00 800.00 738.00
C 800.00 776.33 800.00 814.67 800.00 853.00
C 753.55 855.15 705.98 849.69 660.00 854.00
C 706.01 856.34 754.17 854.33 801.00 855.00
C 801.00 815.34 801.00 775.66 801.00 736.00
C 792.29 736.09 782.62 735.88 774.00 736.00 C 765.38 736.12 756.35 735.76 748.00 736.00 C 739.65 736.24 729.88 735.48 722.00 736.00 C 714.12 736.52 702.88 734.86 696.00 736.00 C 689.12 737.14 674.63 732.57 672.00 738.00 Z"/>
</g>
<g fill="None" fill-opacity="0.0" stroke="#FF9A5D" stroke-opacity="0.54" stroke-width="0.3"><path d="
M 611.00 760.00 
C 610.40 752.38 610.99 744.24 612.00 737.00
C 609.59 744.33 608.28 751.50 611.00 760.00 Z"/>
</g>
<g fill="None" fill-opacity="0.0" stroke="#FF9C5E" stroke-opacity="0.62" stroke-width="0.3"><path d="
M 1099.00 763.00 
C 1100.12 754.67 1098.80 745.39 1098.00 739.00
C 1097.30 746.92 1098.33 755.80 1099.00 763.00 Z"/>
</g>
<g fill="None" fill-opacity="0.0" stroke="#FE9C5D" stroke-opacity="0.47" stroke-width="0.3"><path d="
M 716.00 775.00 
C 721.62 776.84 729.04 774.31 735.00 775.00 C 740.96 775.69 747.94 774.99 754.00 775.00
C 754.50 775.00 755.00 775.00 755.00 775.00
C 755.00 774.50 755.00 774.00 755.00 774.00
C 749.45 773.50 739.14 773.84 734.00 774.00 C 728.86 774.16 716.98 772.59 716.00 775.00 Z"/>
</g>
<g fill="None" fill-opacity="0.0" stroke="#FE9C5D" stroke-opacity="0.72" stroke-width="0.3"><path d="
M 755.00 775.00 
C 755.00 788.81 756.24 803.26 755.00 817.00
C 758.22 813.87 755.88 799.65 756.00 795.00 C 756.12 790.35 758.12 777.01 755.00 774.00
C 755.00 774.00 755.00 774.50 755.00 775.00 Z"/>
</g>
<g fill="None" fill-opacity="0.0" stroke="#000000" stroke-opacity="0.00" stroke-width="0.3"><path d="
M 754.00 817.00 
C 752.80 803.76 752.80 788.24 754.00 775.00
C 747.94 774.99 740.96 775.69 735.00 775.00 C 729.04 774.31 721.62 776.84 716.00 775.00
C 716.00 789.00 716.00 803.00 716.00 817.00
C 728.67 817.00 741.33 817.00 754.00 817.00 Z"/>
</g>
<g fill="None" fill-opacity="0.0" stroke="#FE9E5D" stroke-opacity="0.22" stroke-width="0.3"><path d="
M 754.00 817.00 
C 754.00 817.00 754.74 817.25 755.00 817.00
C 756.24 803.26 755.00 788.81 755.00 775.00
C 755.00 775.00 754.50 775.00 754.00 775.00
C 752.80 788.24 752.80 803.76 754.00 817.00 Z"/>
</g>
<g fill="None" fill-opacity="0.0" stroke="#000000" stroke-opacity="0.00" stroke-width="0.3"><path d="
M 1290.00 775.00 
C 1277.00 775.00 1264.00 775.00 1251.00 775.00
C 1251.00 789.00 1251.00 803.00 1251.00 817.00
C 1264.00 817.00 1277.00 817.00 1290.00 817.00
C 1290.00 803.00 1290.00 789.00 1290.00 775.00 Z"/>
</g>
<g fill="None" fill-opacity="0.0" stroke="#000000" stroke-opacity="0.88" stroke-width="0.3"><path d="
M 703.00 906.00 
C 694.19 904.39 683.18 907.27 676.01 907.99 C 668.83 908.72 665.22 910.60 659.00 914.00
C 659.28 918.28 655.02 924.87 656.00 931.00 C 656.98 937.13 658.63 944.14 663.77 945.79 C 668.91 947.43 671.80 949.62 678.00 950.00 C 684.20 950.38 697.37 951.34 702.97 949.97 C 708.57 948.61 707.10 932.76 705.97 927.03 C 704.85 921.30 690.51 925.24 684.00 924.00 C 677.49 922.76 675.79 936.22 679.00 942.00
C 673.21 943.06 671.36 938.23 667.00 937.00
C 666.85 931.02 663.33 923.87 667.25 918.25 C 671.16 912.63 677.45 915.14 683.00 914.00 C 688.55 912.86 707.84 918.64 703.00 906.00
M 696.00 932.00 
C 696.00 935.33 696.00 938.67 696.00 942.00
C 693.00 942.00 690.00 942.00 687.00 942.00
C 687.00 938.67 687.00 935.33 687.00 932.00
C 690.00 932.00 693.00 932.00 696.00 932.00 Z"/>
</g>
<g fill="None" fill-opacity="0.0" stroke="#000000" stroke-opacity="0.93" stroke-width="0.3"><path d="
M 799.00 906.00 
C 796.00 906.00 793.00 906.00 790.00 906.00
C 791.52 910.05 790.89 914.60 791.00 919.00
C 784.06 918.13 775.16 920.67 770.00 918.00
C 762.41 924.54 759.55 932.32 761.00 942.00
C 769.29 951.47 784.09 949.89 799.00 950.00
C 798.88 936.18 799.09 920.54 799.00 906.00
M 790.00 925.00 
C 791.46 926.46 792.42 939.97 791.00 942.00
C 788.16 946.05 775.92 941.75 774.00 941.00
C 772.15 940.86 770.73 941.12 769.00 939.00
C 769.38 935.69 769.45 931.48 769.00 928.00
C 771.11 929.87 772.76 926.22 775.00 926.00
C 775.21 925.89 775.00 925.00 775.00 925.00
C 776.93 923.01 788.11 923.11 790.00 925.00 Z"/>
</g>
<g fill="None" fill-opacity="0.0" stroke="#000000" stroke-opacity="0.88" stroke-width="0.3"><path d="
M 1068.00 906.00 
C 1054.82 907.60 1035.19 905.36 1027.78 911.44 C 1020.36 917.51 1017.49 932.75 1024.75 942.25 C 1032.00 951.76 1046.21 948.99 1061.00 950.00 C 1075.79 951.01 1069.35 944.69 1071.00 933.00 C 1072.65 921.31 1063.12 925.12 1053.00 924.00 C 1042.88 922.88 1040.95 930.76 1043.00 941.00
C 1033.08 940.04 1031.46 936.45 1030.98 927.03 C 1030.50 917.61 1035.67 915.50 1043.30 914.64 C 1050.93 913.78 1070.19 918.58 1068.00 906.00
M 1061.00 932.00 
C 1061.00 935.33 1061.00 938.67 1061.00 942.00
C 1058.00 942.00 1055.00 942.00 1052.00 942.00
C 1052.00 938.67 1052.00 935.33 1052.00 932.00
C 1055.00 932.00 1058.00 932.00 1061.00 932.00 Z"/>
</g>
<g fill="None" fill-opacity="0.0" stroke="#000000" stroke-opacity="0.94" stroke-width="0.3"><path d="
M 1217.00 949.00 
C 1216.77 941.02 1217.31 930.76 1217.00 923.00 C 1216.69 915.24 1220.23 903.58 1209.00 906.00
C 1209.00 910.33 1209.00 914.67 1209.00 919.00
C 1202.06 918.13 1193.16 920.67 1188.00 918.00
C 1186.73 920.75 1182.14 925.88 1179.00 925.00
C 1178.57 930.05 1179.55 936.43 1179.00 942.00
C 1185.65 942.52 1186.01 950.05 1192.75 949.20 C 1199.50 948.35 1209.45 949.43 1217.00 949.00
M 1208.00 925.00 
C 1209.66 926.66 1210.18 938.55 1209.00 941.00
C 1207.09 944.96 1195.66 943.11 1192.00 942.00
C 1184.62 939.76 1183.77 929.03 1193.00 926.00
C 1193.15 925.95 1193.00 925.00 1193.00 925.00
C 1194.93 923.01 1206.11 923.11 1208.00 925.00 Z"/>
</g>
<g fill="None" fill-opacity="0.0" stroke="#000000" stroke-opacity="0.85" stroke-width="0.3"><path d="
M 905.00 926.00 
C 909.48 927.07 906.05 937.22 906.00 942.00
C 905.64 950.00 930.48 956.07 929.00 943.00
C 915.62 946.76 911.46 937.83 914.00 926.00
C 918.74 925.98 929.16 927.88 927.97 921.03 C 926.78 914.18 917.94 919.16 914.00 919.00
C 914.00 915.67 914.00 912.33 914.00 909.00
C 911.00 909.00 908.00 909.00 905.00 909.00
C 905.00 912.00 905.00 915.00 905.00 918.00
C 900.90 918.53 896.08 916.15 896.01 921.99 C 895.94 927.83 901.10 925.07 905.00 926.00 Z"/>
</g>
<g fill="None" fill-opacity="0.0" stroke="#000000" stroke-opacity="0.35" stroke-width="0.3"><path d="
M 1141.00 919.00 
C 1147.00 919.11 1153.00 918.98 1159.00 919.00
C 1156.93 918.44 1153.99 917.00 1150.00 917.00 C 1146.01 917.00 1143.01 918.46 1141.00 919.00 Z"/>
</g>
<g fill="None" fill-opacity="0.0" stroke="#000000" stroke-opacity="0.87" stroke-width="0.3"><path d="
M 1224.00 949.00 
C 1233.40 944.72 1247.85 950.83 1257.00 949.00
C 1260.28 949.35 1260.91 941.88 1264.00 944.00
C 1264.14 939.35 1264.54 934.44 1261.00 931.00
C 1253.43 930.95 1239.54 928.04 1232.00 931.00
C 1230.71 928.96 1230.48 926.03 1232.00 924.00
C 1241.36 926.44 1252.89 924.15 1262.00 925.00
C 1264.41 912.55 1250.02 918.03 1242.00 917.00 C 1233.98 915.97 1228.78 918.50 1224.00 921.00
C 1223.96 924.20 1223.57 927.14 1223.00 932.00
C 1230.06 939.25 1243.31 937.50 1254.00 936.00
C 1260.23 943.91 1248.91 943.62 1243.00 943.00 C 1237.09 942.38 1228.67 944.24 1223.00 942.00
C 1223.24 944.39 1222.29 947.29 1224.00 949.00 Z"/>
</g>
<g fill="None" fill-opacity="0.0" stroke="#000000" stroke-opacity="0.90" stroke-width="0.3"><path d="
M 717.00 925.00 
C 722.32 925.55 738.51 920.38 743.00 925.00
C 743.25 925.26 743.00 926.00 743.00 926.00
C 745.74 923.99 745.65 929.23 746.00 931.00
C 735.76 928.82 722.24 929.72 714.00 932.00
C 715.08 933.99 714.11 939.96 712.00 936.00
C 712.44 941.87 714.09 945.29 717.00 949.00
C 727.33 950.30 741.71 950.06 754.00 950.00
C 750.95 941.49 758.57 926.41 751.74 920.26 C 744.91 914.10 724.89 920.19 716.00 918.00
C 716.24 920.39 715.29 923.29 717.00 925.00
M 746.00 937.00 
C 747.11 948.59 729.45 940.68 722.00 943.00
C 721.17 941.09 721.39 939.38 721.00 937.00
C 728.53 937.32 737.78 936.77 746.00 937.00 Z"/>
</g>
<g fill="None" fill-opacity="0.0" stroke="#000000" stroke-opacity="0.91" stroke-width="0.3"><path d="
M 821.00 949.00 
C 824.91 948.91 830.32 947.58 835.00 948.00
C 844.15 964.21 809.38 945.72 814.00 962.00
C 822.94 962.27 832.73 961.61 841.00 962.00
C 839.45 960.07 842.38 958.35 844.00 958.00
C 842.41 945.23 842.29 930.77 844.00 918.00
C 834.67 918.00 825.33 918.00 816.00 918.00
C 809.45 924.35 804.83 928.38 806.65 937.31 C 808.46 946.23 813.61 947.47 821.00 949.00
M 837.00 925.00 
C 836.78 932.56 839.87 943.88 830.00 943.00 C 820.12 942.12 819.78 943.10 814.00 938.00
C 815.37 932.00 814.23 929.29 818.00 925.00
C 823.86 926.38 831.19 926.81 837.00 925.00 Z"/>
</g>
<g fill="None" fill-opacity="0.0" stroke="#000000" stroke-opacity="0.93" stroke-width="0.3"><path d="
M 864.00 948.00 
C 872.85 948.36 882.98 946.89 891.00 949.00
C 893.13 947.62 891.48 944.19 892.00 942.00
C 882.58 943.74 871.45 943.54 862.00 942.00
C 863.17 938.56 859.18 939.97 860.00 936.00
C 868.35 934.97 878.89 937.03 886.77 936.77 C 894.66 936.51 892.66 926.32 893.00 922.00
C 891.17 923.59 886.34 919.71 888.00 918.00
C 877.13 918.49 858.18 915.48 852.59 925.25 C 847.01 935.03 850.99 947.46 864.00 948.00
M 884.00 924.00 
C 887.97 936.63 867.29 928.88 860.00 931.00
C 861.35 922.28 875.13 924.28 884.00 924.00 Z"/>
</g>
<g fill="None" fill-opacity="0.0" stroke="#000000" stroke-opacity="0.91" stroke-width="0.3"><path d="
M 985.00 948.00 
C 986.73 946.98 990.12 948.77 992.00 948.00
C 992.00 940.33 992.00 932.67 992.00 925.00
C 991.63 921.70 987.49 920.70 987.00 918.00
C 978.11 916.67 973.29 919.77 964.00 918.00 C 954.71 916.23 955.31 925.70 956.00 933.00 C 956.69 940.30 952.83 951.03 964.00 948.00
C 964.94 935.42 959.01 923.32 975.00 924.00 C 990.99 924.68 980.42 937.26 985.00 948.00 Z"/>
</g>
<g fill="None" fill-opacity="0.0" stroke="#000000" stroke-opacity="0.93" stroke-width="0.3"><path d="
M 1090.00 949.00 
C 1095.22 949.29 1104.74 948.97 1110.00 949.00
C 1116.41 949.87 1116.08 943.60 1122.00 942.00
C 1120.57 936.13 1122.92 930.80 1122.00 926.00
C 1116.16 923.15 1116.08 917.69 1108.00 919.00 C 1099.92 920.31 1090.02 917.59 1083.75 921.75 C 1077.49 925.92 1077.32 933.91 1078.42 939.23 C 1079.53 944.55 1085.50 947.54 1090.00 949.00
M 1114.00 929.00 
C 1114.47 934.32 1114.39 939.52 1110.00 943.00
C 1098.69 942.52 1084.18 944.32 1086.60 931.26 C 1089.02 918.19 1106.24 924.04 1114.00 929.00 Z"/>
</g>
<g fill="None" fill-opacity="0.0" stroke="#000000" stroke-opacity="0.92" stroke-width="0.3"><path d="
M 1141.00 948.00 
C 1147.32 947.88 1153.68 947.88 1160.00 948.00
C 1163.83 951.17 1162.84 945.34 1166.00 948.00
C 1169.23 942.89 1175.55 937.02 1172.97 929.03 C 1170.40 921.04 1164.81 919.02 1159.00 919.00
C 1153.00 918.98 1147.00 919.11 1141.00 919.00
C 1139.69 918.46 1138.56 917.59 1137.00 918.00
C 1138.95 920.16 1133.61 923.07 1133.00 920.00
C 1129.13 925.91 1129.45 926.17 1128.00 933.00 C 1126.56 939.83 1132.37 941.85 1133.00 947.00
C 1137.68 947.83 1136.88 948.08 1141.00 948.00
M 1159.00 924.00 
C 1153.88 926.98 1165.59 925.05 1163.64 929.70 C 1161.70 934.34 1168.89 933.92 1163.07 940.07 C 1157.26 946.23 1145.09 941.52 1139.00 942.00
C 1138.64 939.10 1133.98 935.26 1136.00 929.00
C 1139.80 930.06 1139.93 924.68 1143.13 924.08 C 1146.33 923.48 1155.27 924.37 1159.00 924.00 Z"/>
</g>
<g fill="None" fill-opacity="0.0" stroke="#000000" stroke-opacity="0.75" stroke-width="0.3"><path d="
M 717.00 925.00 
C 725.61 925.58 734.40 924.22 743.00 925.00
C 738.51 920.38 722.32 925.55 717.00 925.00 Z"/>
</g>
<g fill="None" fill-opacity="0.0" stroke="#000000" stroke-opacity="0.75" stroke-width="0.3"><path d="
M 775.00 925.00 
C 779.96 924.55 785.03 925.34 790.00 925.00
C 788.11 923.11 776.93 923.01 775.00 925.00 Z"/>
</g>
<g fill="None" fill-opacity="0.0" stroke="#000000" stroke-opacity="0.21" stroke-width="0.3"><path d="
M 884.00 924.00 
C 875.13 924.28 861.35 922.28 860.00 931.00
C 867.29 928.88 887.97 936.63 884.00 924.00 Z"/>
</g>
<g fill="None" fill-opacity="0.0" stroke="#000000" stroke-opacity="0.07" stroke-width="0.3"><path d="
M 1114.00 929.00 
C 1106.24 924.04 1089.02 918.19 1086.60 931.26 C 1084.18 944.32 1098.69 942.52 1110.00 943.00
C 1114.39 939.52 1114.47 934.32 1114.00 929.00 Z"/>
</g>
<g fill="None" fill-opacity="0.0" stroke="#000000" stroke-opacity="0.08" stroke-width="0.3"><path d="
M 1159.00 924.00 
C 1155.27 924.37 1146.33 923.48 1143.13 924.08 C 1139.93 924.68 1139.80 930.06 1136.00 929.00
C 1133.98 935.26 1138.64 939.10 1139.00 942.00
C 1145.09 941.52 1157.26 946.23 1163.07 940.07 C 1168.89 933.92 1161.70 934.34 1163.64 929.70 C 1165.59 925.05 1153.88 926.98 1159.00 924.00 Z"/>
</g>
<g fill="None" fill-opacity="0.0" stroke="#000000" stroke-opacity="0.75" stroke-width="0.3"><path d="
M 1193.00 925.00 
C 1197.96 924.55 1203.03 925.34 1208.00 925.00
C 1206.11 923.11 1194.93 923.01 1193.00 925.00 Z"/>
</g>
<g fill="None" fill-opacity="0.0" stroke="#000000" stroke-opacity="0.22" stroke-width="0.3"><path d="
M 743.00 926.00 
C 743.00 926.00 743.25 925.26 743.00 925.00
C 734.40 924.22 725.61 925.58 717.00 925.00
C 720.29 928.29 737.96 926.46 743.00 926.00 Z"/>
</g>
<g fill="None" fill-opacity="0.0" stroke="#000000" stroke-opacity="0.22" stroke-width="0.3"><path d="
M 775.00 926.00 
C 779.73 926.43 786.07 926.51 790.00 925.00
C 785.03 925.34 779.96 924.55 775.00 925.00
C 775.00 925.00 775.21 925.89 775.00 926.00 Z"/>
</g>
<g fill="None" fill-opacity="0.0" stroke="#000000" stroke-opacity="0.04" stroke-width="0.3"><path d="
M 775.00 926.00 
C 772.76 926.22 771.11 929.87 769.00 928.00
C 769.45 931.48 769.38 935.69 769.00 939.00
C 770.73 941.12 772.15 940.86 774.00 941.00
C 779.62 941.43 785.81 939.92 791.00 942.00
C 792.42 939.97 791.46 926.46 790.00 925.00
C 786.07 926.51 779.73 926.43 775.00 926.00 Z"/>
</g>
<g fill="None" fill-opacity="0.0" stroke="#000000" stroke-opacity="0.11" stroke-width="0.3"><path d="
M 837.00 925.00 
C 831.19 926.81 823.86 926.38 818.00 925.00
C 814.23 929.29 815.37 932.00 814.00 938.00
C 819.78 943.10 820.12 942.12 830.00 943.00 C 839.87 943.88 836.78 932.56 837.00 925.00 Z"/>
</g>
<g fill="None" fill-opacity="0.0" stroke="#000000" stroke-opacity="0.60" stroke-width="0.3"><path d="
M 905.00 926.00 
C 903.22 929.59 905.21 938.83 906.00 942.00
C 906.05 937.22 909.48 927.07 905.00 926.00 Z"/>
</g>
<g fill="None" fill-opacity="0.0" stroke="#030303" stroke-opacity="0.44" stroke-width="0.3"><path d="
M 985.00 948.00 
C 986.99 952.66 995.33 950.07 994.00 943.00 C 992.67 935.93 995.12 931.11 992.00 925.00
C 992.00 932.67 992.00 940.33 992.00 948.00
C 990.12 948.77 986.73 946.98 985.00 948.00 Z"/>
</g>
<g fill="None" fill-opacity="0.0" stroke="#000000" stroke-opacity="0.22" stroke-width="0.3"><path d="
M 1193.00 926.00 
C 1197.73 926.43 1204.07 926.51 1208.00 925.00
C 1203.03 925.34 1197.96 924.55 1193.00 925.00
C 1193.00 925.00 1193.15 925.95 1193.00 926.00 Z"/>
</g>
<g fill="None" fill-opacity="0.0" stroke="#000000" stroke-opacity="0.04" stroke-width="0.3"><path d="
M 1193.00 926.00 
C 1183.77 929.03 1184.62 939.76 1192.00 942.00
C 1196.56 942.34 1203.64 939.67 1209.00 941.00
C 1210.18 938.55 1209.66 926.66 1208.00 925.00
C 1204.07 926.51 1197.73 926.43 1193.00 926.00 Z"/>
</g>
<g fill="None" fill-opacity="0.0" stroke="#000000" stroke-opacity="0.13" stroke-width="0.3"><path d="
M 696.00 932.00 
C 693.00 932.00 690.00 932.00 687.00 932.00
C 687.00 935.33 687.00 938.67 687.00 942.00
C 690.00 942.00 693.00 942.00 696.00 942.00
C 696.00 938.67 696.00 935.33 696.00 932.00 Z"/>
</g>
<g fill="None" fill-opacity="0.0" stroke="#000000" stroke-opacity="0.13" stroke-width="0.3"><path d="
M 1061.00 932.00 
C 1058.00 932.00 1055.00 932.00 1052.00 932.00
C 1052.00 935.33 1052.00 938.67 1052.00 942.00
C 1055.00 942.00 1058.00 942.00 1061.00 942.00
C 1061.00 938.67 1061.00 935.33 1061.00 932.00 Z"/>
</g>
<g fill="None" fill-opacity="0.0" stroke="#000000" stroke-opacity="0.16" stroke-width="0.3"><path d="
M 746.00 937.00 
C 737.78 936.77 728.53 937.32 721.00 937.00
C 721.39 939.38 721.17 941.09 722.00 943.00
C 729.45 940.68 747.11 948.59 746.00 937.00 Z"/>
</g>
<g fill="None" fill-opacity="0.0" stroke="#000000" stroke-opacity="0.39" stroke-width="0.3"><path d="
M 791.00 942.00 
C 785.81 939.92 779.62 941.43 774.00 941.00
C 775.92 941.75 788.16 946.05 791.00 942.00 Z"/>
</g>
<g fill="None" fill-opacity="0.0" stroke="#000000" stroke-opacity="0.40" stroke-width="0.3"><path d="
M 1192.00 942.00 
C 1195.66 943.11 1207.09 944.96 1209.00 941.00
C 1203.64 939.67 1196.56 942.34 1192.00 942.00 Z"/>
</g>
<g fill="None" fill-opacity="0.0" stroke="#000000" stroke-opacity="0.74" stroke-width="0.3"><path d="
M 821.00 949.00 
C 825.64 948.68 830.37 949.42 835.00 949.00
C 835.00 949.00 835.04 948.00 835.00 948.00
C 830.32 947.58 824.91 948.91 821.00 949.00 Z"/>
</g>
<g fill="None" fill-opacity="0.0" stroke="#000000" stroke-opacity="0.47" stroke-width="0.3"><path d="
M 891.00 949.00 
C 882.98 946.89 872.85 948.36 864.00 948.00
C 864.60 948.23 871.59 951.75 876.00 950.00 C 880.41 948.25 887.57 952.43 891.00 949.00 Z"/>
</g>
<g fill="None" fill-opacity="0.0" stroke="#000000" stroke-opacity="0.47" stroke-width="0.3"><path d="
M 1090.00 949.00 
C 1095.74 950.86 1104.18 950.21 1110.00 949.00
C 1104.74 948.97 1095.22 949.29 1090.00 949.00 Z"/>
</g>
<g fill="None" fill-opacity="0.0" stroke="#000000" stroke-opacity="0.75" stroke-width="0.3"><path d="
M 1141.00 949.00 
C 1146.99 949.54 1154.02 949.55 1160.00 949.00
C 1160.00 949.00 1160.04 948.00 1160.00 948.00
C 1153.68 947.88 1147.32 947.88 1141.00 948.00
C 1141.00 948.00 1140.75 948.74 1141.00 949.00 Z"/>
</g>
<g fill="None" fill-opacity="0.0" stroke="#000000" stroke-opacity="0.75" stroke-width="0.3"><path d="
M 1224.00 949.00 
C 1235.00 949.00 1246.00 949.00 1257.00 949.00
C 1247.85 950.83 1233.40 944.72 1224.00 949.00 Z"/>
</g>
<g fill="None" fill-opacity="0.0" stroke="#000000" stroke-opacity="0.21" stroke-width="0.3"><path d="
M 835.00 949.00 
C 830.37 949.42 825.64 948.68 821.00 949.00
C 823.91 949.61 832.28 951.82 835.00 949.00 Z"/>
</g>
<g fill="None" fill-opacity="0.0" stroke="#000000" stroke-opacity="0.21" stroke-width="0.3"><path d="
M 1160.00 949.00 
C 1154.02 949.55 1146.99 949.54 1141.00 949.00
C 1143.01 951.07 1157.93 951.14 1160.00 949.00 Z"/>
</g>
<g fill="None" fill-opacity="0.0" stroke="#000000" stroke-opacity="0.22" stroke-width="0.3"><path d="
M 1257.00 949.00 
C 1246.00 949.00 1235.00 949.00 1224.00 949.00
C 1227.08 952.08 1236.53 949.43 1241.00 950.00 C 1245.47 950.57 1253.26 950.71 1257.00 949.00 Z"/>
</g>
<g fill="None" fill-opacity="0.0" stroke="#000000" stroke-opacity="0.99" stroke-width="0.3"><path d="
M 1402.00 1166.00 
C 1401.36 1143.88 1400.00 1119.50 1400.00 1097.00
C 1403.32 1079.54 1396.63 1065.59 1397.00 1050.00 C 1397.37 1034.41 1395.66 1015.50 1395.00 1000.00 C 1394.34 984.51 1394.68 967.85 1393.00 952.00
C 1378.00 952.00 1363.00 952.00 1348.00 952.00
C 1349.83 959.12 1349.00 965.82 1349.00 974.00
C 1349.05 974.25 1351.48 975.92 1351.00 978.00 C 1350.51 980.09 1350.13 981.68 1350.00 983.00
C 1351.38 997.27 1351.64 1011.99 1353.00 1026.00
C 1353.27 1028.82 1353.27 1032.24 1353.00 1035.00
C 1352.61 1049.57 1357.72 1065.06 1357.00 1080.00 C 1356.28 1094.94 1357.50 1112.00 1358.00 1125.00 C 1358.50 1138.00 1365.00 1155.27 1354.00 1163.00
C 1350.80 1174.84 1337.06 1172.99 1323.00 1173.00 C 1308.94 1173.01 1290.94 1172.99 1276.00 1173.00 C 1261.06 1173.01 1244.34 1173.00 1229.00 1173.00 C 1213.66 1173.00 1197.52 1173.00 1182.00 1173.00 C 1166.48 1173.00 1150.60 1173.00 1135.00 1173.00 C 1119.40 1173.00 1103.63 1173.00 1088.00 1173.00 C 1072.37 1173.00 1056.65 1173.00 1041.00 1173.00 C 1025.35 1173.00 1009.65 1173.00 994.00 1173.00 C 978.35 1173.00 962.64 1173.00 947.00 1173.00 C 931.36 1173.00 915.61 1173.01 900.00 1173.00 C 884.39 1172.99 868.56 1173.01 853.00 1173.00 C 837.44 1172.99 822.53 1173.03 807.00 1173.00 C 791.47 1172.97 775.52 1173.07 760.00 1173.00 C 744.48 1172.93 728.41 1173.15 713.00 1173.00 C 697.59 1172.85 681.13 1173.34 666.00 1173.00 C 650.87 1172.66 633.48 1173.75 619.00 1173.00 C 604.52 1172.25 588.75 1175.46 577.92 1171.13 C 567.09 1166.80 563.90 1153.96 566.00 1142.00 C 568.10 1130.04 565.25 1115.63 567.01 1104.01 C 568.77 1092.40 570.14 1078.20 569.00 1065.00 C 567.86 1051.80 574.24 1038.88 572.97 1026.03 C 571.70 1013.19 573.77 1002.60 573.22 989.22 C 572.67 975.84 576.83 965.23 576.00 952.00
C 561.00 952.00 546.00 952.00 531.00 952.00
C 531.05 960.98 531.55 969.02 531.00 978.00 C 530.45 986.98 528.86 995.16 529.00 1004.00 C 529.14 1012.83 528.19 1022.07 528.00 1031.00 C 527.80 1039.93 526.02 1049.84 525.94 1058.92 C 525.85 1068.00 525.92 1077.33 524.80 1085.75 C 523.68 1094.18 524.44 1103.68 523.11 1112.11 C 521.78 1120.54 524.52 1132.32 522.00 1141.00 C 519.47 1149.68 522.55 1156.41 521.00 1163.00
C 526.62 1170.71 524.56 1176.44 529.30 1183.70 C 534.04 1190.95 536.94 1197.08 545.75 1203.25 C 554.57 1209.41 556.49 1209.55 565.71 1213.29 C 574.92 1217.04 586.96 1216.09 600.00 1216.00 C 613.04 1215.91 628.39 1216.04 642.00 1216.00 C 655.61 1215.96 670.09 1216.02 684.00 1216.00 C 697.91 1215.98 712.97 1216.01 727.00 1216.00 C 741.03 1215.99 754.95 1216.00 769.00 1216.00 C 783.05 1216.00 796.89 1216.00 811.00 1216.00 C 825.11 1216.00 839.88 1216.00 854.00 1216.00 C 868.12 1216.00 881.91 1216.00 896.00 1216.00 C 910.09 1216.00 923.88 1216.00 938.00 1216.00 C 952.12 1216.00 966.88 1216.00 981.00 1216.00 C 995.12 1216.00 1008.91 1216.00 1023.00 1216.00 C 1037.09 1216.00 1050.89 1215.99 1065.00 1216.00 C 1079.11 1216.01 1093.90 1215.99 1108.00 1216.00 C 1122.10 1216.01 1135.97 1215.97 1150.00 1216.00 C 1164.03 1216.03 1178.01 1215.93 1192.00 1216.00 C 1205.99 1216.07 1221.17 1215.86 1235.00 1216.00 C 1248.83 1216.15 1263.57 1215.67 1277.00 1216.00 C 1290.43 1216.33 1306.35 1215.27 1319.00 1216.00 C 1331.65 1216.73 1345.43 1215.31 1353.75 1214.20 C 1362.07 1213.09 1367.88 1209.88 1374.75 1205.19 C 1381.63 1200.51 1387.44 1194.91 1391.76 1187.77 C 1396.09 1180.63 1399.95 1177.43 1402.00 1166.00 Z"/>
</g>
<g fill="None" fill-opacity="0.0" stroke="#000000" stroke-opacity="0.37" stroke-width="0.3"><path d="
M 1350.00 983.00 
C 1350.13 981.68 1350.51 980.09 1351.00 978.00 C 1351.48 975.92 1349.05 974.25 1349.00 974.00
C 1349.00 977.09 1349.77 980.58 1350.00 983.00 Z"/>
</g>
<g fill="None" fill-opacity="0.0" stroke="#000000" stroke-opacity="0.88" stroke-width="0.3"><path d="
M 816.00 1013.00 
C 807.54 1012.72 799.00 1017.52 793.39 1024.25 C 787.79 1030.97 790.14 1041.43 795.00 1046.00
C 795.03 1032.00 805.09 1020.73 821.00 1019.00
C 824.12 1013.04 811.87 1016.37 816.00 1013.00 Z"/>
</g>
<g fill="None" fill-opacity="0.0" stroke="#000000" stroke-opacity="0.86" stroke-width="0.3"><path d="
M 1120.00 1016.00 
C 1114.47 1017.48 1115.51 1012.78 1110.01 1013.01 C 1104.51 1013.23 1101.64 1015.30 1098.00 1016.00
C 1104.48 1021.10 1108.79 1019.56 1116.25 1026.75 C 1123.71 1033.95 1125.13 1037.75 1126.00 1046.00
C 1135.27 1037.40 1126.94 1024.38 1120.00 1016.00 Z"/>
</g>
<g fill="None" fill-opacity="0.0" stroke="#000000" stroke-opacity="0.42" stroke-width="0.3"><path d="
M 1353.00 1035.00 
C 1353.27 1032.24 1353.27 1028.82 1353.00 1026.00
C 1352.73 1028.76 1352.73 1032.18 1353.00 1035.00 Z"/>
</g>
<g fill="None" fill-opacity="0.0" stroke="#000000" stroke-opacity="0.91" stroke-width="0.3"><path d="
M 1113.00 1033.00 
C 1110.58 1031.52 1109.72 1031.95 1107.00 1031.00
C 1101.89 1038.77 1088.50 1045.98 1084.75 1050.61 C 1081.00 1055.24 1075.84 1055.41 1071.70 1058.36 C 1067.56 1061.30 1064.45 1064.21 1059.23 1066.79 C 1054.01 1069.36 1050.50 1073.24 1043.92 1073.87 C 1037.33 1074.49 1039.65 1079.19 1032.08 1079.93 C 1024.50 1080.67 1014.05 1087.37 1003.23 1088.78 C 992.40 1090.19 985.15 1092.98 972.00 1094.00 C 958.85 1095.02 940.23 1093.81 931.01 1090.99 C 921.78 1088.18 919.48 1092.91 918.00 1088.00
C 907.51 1088.33 897.47 1083.27 888.75 1080.39 C 880.04 1077.52 872.39 1073.58 864.13 1069.92 C 855.87 1066.26 847.67 1058.69 837.92 1053.13 C 828.16 1047.57 821.41 1040.95 811.00 1032.00
C 808.29 1031.75 808.37 1035.22 806.00 1034.00
C 808.97 1046.80 823.27 1051.46 829.81 1056.75 C 836.36 1062.04 844.65 1068.96 853.75 1073.20 C 862.85 1077.44 867.91 1080.82 876.92 1085.07 C 885.94 1089.32 897.15 1092.61 906.32 1095.66 C 915.50 1098.72 927.68 1099.08 939.78 1100.22 C 951.88 1101.36 969.50 1102.80 981.93 1100.93 C 994.35 1099.05 1005.65 1097.23 1015.70 1094.70 C 1025.74 1092.17 1033.16 1086.31 1041.43 1083.79 C 1049.70 1081.26 1057.81 1075.53 1065.25 1071.39 C 1072.69 1067.25 1082.29 1062.61 1088.25 1056.26 C 1094.20 1049.92 1112.58 1045.66 1113.00 1033.00 Z"/>
</g>
<g fill="None" fill-opacity="0.0" stroke="#000000" stroke-opacity="0.55" stroke-width="0.3"><path d="
M 1402.00 1166.00 
C 1403.94 1155.17 1402.46 1141.52 1403.00 1130.00 C 1403.54 1118.48 1401.93 1106.16 1400.00 1097.00
C 1400.00 1119.50 1401.36 1143.88 1402.00 1166.00 Z"/>
</g>
<g fill="#000000" fill-opacity="0.00" stroke="None">
<path d="
M 0.00 1333.00 
L 1920.00 1333.00
L 1920.00 0.00
L 0.00 0.00
L 0.00 1333.00
M 980.00 157.00 
C 980.25 157.26 980.00 158.00 980.00 158.00
C 986.84 157.63 992.06 159.75 997.00 158.00
C 1002.70 160.89 1013.42 162.24 1021.23 164.77 C 1029.04 167.30 1037.20 168.09 1045.25 172.20 C 1053.29 176.31 1057.47 177.02 1064.30 181.71 C 1071.14 186.40 1076.72 186.67 1083.70 191.35 C 1090.68 196.04 1095.64 202.94 1102.92 207.09 C 1110.20 211.24 1115.69 221.31 1123.75 227.25 C 1131.81 233.18 1134.24 242.10 1142.00 246.00
C 1139.48 249.27 1143.71 250.82 1146.00 251.00
C 1147.11 258.08 1154.41 266.03 1157.71 272.30 C 1161.02 278.58 1164.07 287.02 1167.64 293.71 C 1171.22 300.40 1171.04 306.59 1174.35 314.70 C 1177.66 322.80 1178.27 332.10 1182.00 341.00
C 1180.34 343.98 1181.66 352.57 1182.33 356.67 C 1183.00 360.77 1183.91 367.09 1183.00 374.00
C 1196.93 374.06 1212.21 373.91 1226.00 374.00 C 1239.79 374.09 1255.71 373.84 1269.00 374.00 C 1282.29 374.16 1296.55 373.52 1307.75 374.40 C 1318.96 375.27 1321.24 379.76 1329.75 382.59 C 1338.26 385.43 1345.07 394.93 1351.57 401.77 C 1358.07 408.61 1357.45 415.33 1363.00 422.00
C 1364.57 435.86 1365.44 450.78 1365.40 466.74 C 1365.37 482.70 1368.78 499.40 1369.00 516.00 C 1369.22 532.60 1370.78 546.58 1371.07 563.08 C 1371.35 579.58 1370.78 600.37 1375.00 615.00
C 1360.63 614.97 1343.35 614.97 1329.00 615.00
C 1331.10 593.48 1327.07 570.82 1326.22 550.78 C 1325.37 530.74 1324.07 507.21 1323.01 487.99 C 1321.94 468.78 1323.65 447.27 1318.42 432.23 C 1313.20 417.19 1300.50 417.03 1280.00 416.00 C 1259.50 414.97 1231.38 416.46 1209.00 416.00 C 1186.62 415.54 1160.22 416.22 1137.00 416.00 C 1113.78 415.78 1088.55 416.12 1065.00 416.00 C 1041.45 415.88 1017.69 416.10 994.00 416.00 C 970.31 415.90 945.73 416.14 922.00 416.00 C 898.27 415.86 874.71 416.28 851.00 416.00 C 827.29 415.72 802.60 416.60 779.00 416.00 C 755.40 415.40 730.23 417.31 707.00 416.00 C 683.78 414.69 660.81 418.01 641.00 419.00 C 621.19 419.99 606.48 419.18 604.20 438.25 C 601.92 457.31 603.81 476.97 602.00 497.00 C 600.19 517.03 598.78 536.11 597.67 556.67 C 596.56 577.23 595.46 596.70 596.00 615.00
C 580.67 615.00 565.33 615.00 550.00 615.00
C 551.73 606.98 550.78 601.16 551.80 592.75 C 552.82 584.34 553.07 574.74 553.99 565.99 C 554.92 557.24 553.57 549.08 554.98 539.97 C 556.39 530.87 554.11 523.42 556.90 514.90 C 559.69 506.39 554.19 497.05 557.11 490.11 C 560.03 483.17 556.70 472.72 558.00 465.00 C 559.30 457.28 560.60 447.47 561.00 439.00 C 561.40 430.53 560.92 424.65 563.35 418.31 C 565.78 411.96 568.23 411.14 571.30 405.30 C 574.37 399.47 577.51 395.30 582.75 391.61 C 587.99 387.92 593.02 384.09 596.00 380.00
C 606.51 378.45 607.12 375.61 618.25 374.80 C 629.37 374.00 645.33 373.85 658.00 374.00 C 670.67 374.15 685.74 373.92 699.00 374.00 C 712.26 374.08 727.55 373.94 741.00 374.00
C 740.50 366.66 740.04 358.87 741.22 351.78 C 742.40 344.69 743.28 339.92 744.20 333.75 C 745.12 327.59 747.59 323.62 748.19 317.75 C 748.79 311.88 751.57 309.63 752.21 304.76 C 752.85 299.90 756.53 298.98 757.76 293.61 C 758.99 288.24 760.89 287.70 763.30 281.29 C 765.72 274.87 772.31 263.17 777.08 256.08 C 781.86 249.00 782.41 248.43 785.26 243.26 C 788.10 238.08 793.62 235.89 797.25 230.25 C 800.88 224.61 804.30 223.98 809.25 218.25 C 814.20 212.52 818.48 208.69 822.19 205.75 C 825.90 202.81 830.26 197.99 834.00 199.00
C 843.88 189.03 854.64 184.04 867.23 178.23 C 879.82 172.42 888.87 167.69 901.30 164.29 C 913.74 160.89 930.86 158.40 945.00 158.00
C 944.96 158.00 945.00 157.00 945.00 157.00
C 947.62 154.29 957.98 155.88 962.00 156.00 C 966.02 156.12 977.27 154.19 980.00 157.00
M 612.00 737.00 
C 610.99 744.24 610.40 752.38 611.00 760.00
C 613.53 791.89 638.13 818.30 672.00 816.00
C 672.00 790.00 672.00 764.00 672.00 738.00
C 674.63 732.57 689.12 737.14 696.00 736.00 C 702.88 734.86 714.12 736.52 722.00 736.00 C 729.88 735.48 739.65 736.24 748.00 736.00 C 756.35 735.76 765.38 736.12 774.00 736.00 C 782.62 735.88 792.29 736.09 801.00 736.00
C 801.00 775.66 801.00 815.34 801.00 855.00
C 754.17 854.33 706.01 856.34 660.00 854.00
C 633.23 856.51 607.70 842.94 588.25 824.75 C 568.79 806.57 562.65 775.91 563.00 749.00 C 563.35 722.09 569.48 694.37 589.75 674.75 C 610.02 655.13 636.74 649.64 664.00 647.00
C 668.06 646.61 673.26 646.00 678.00 646.00
C 715.66 646.00 753.34 646.00 791.00 646.00
C 791.00 658.67 791.00 671.33 791.00 684.00
C 755.50 684.03 709.45 683.96 675.00 684.00 C 640.55 684.04 615.34 703.88 612.00 737.00
M 1099.00 763.00 
C 1098.33 755.80 1097.30 746.92 1098.00 739.00
C 1101.77 696.11 1124.43 659.78 1170.07 651.07 C 1215.72 642.36 1276.41 647.13 1325.00 646.00
C 1325.00 658.67 1325.00 671.33 1325.00 684.00
C 1285.37 683.73 1241.89 683.91 1203.00 685.00 C 1164.10 686.08 1145.97 716.75 1146.00 752.00 C 1146.03 787.25 1168.24 817.50 1206.00 816.00
C 1206.00 789.33 1206.00 762.67 1206.00 736.00
C 1249.67 736.00 1293.33 736.00 1337.00 736.00
C 1337.00 775.66 1337.00 815.34 1337.00 855.00
C 1302.35 855.56 1259.87 854.25 1226.00 855.00 C 1192.13 855.75 1162.44 853.15 1135.92 836.08 C 1109.40 819.01 1101.13 791.28 1099.00 763.00
M 1046.00 673.00 
C 1046.00 725.00 1046.00 777.00 1046.00 829.00
C 1034.25 827.34 1020.73 827.34 1009.00 829.00
C 972.94 791.06 938.03 752.64 900.00 717.00
C 900.00 754.33 900.00 791.67 900.00 829.00
C 888.42 829.64 876.14 827.70 865.00 830.00
C 865.00 778.00 865.00 726.00 865.00 674.00
C 878.10 676.25 898.86 671.41 907.75 682.25 C 916.64 693.09 924.67 698.11 933.25 707.75 C 941.82 717.40 950.44 724.04 958.75 733.25 C 967.06 742.46 974.83 750.64 983.75 759.25 C 992.67 767.85 1000.79 776.94 1010.00 785.00
C 1012.33 748.17 1010.34 710.25 1011.00 673.00
C 1022.67 673.00 1034.33 673.00 1046.00 673.00
M 703.00 906.00 
C 707.84 918.64 688.55 912.86 683.00 914.00 C 677.45 915.14 671.16 912.63 667.25 918.25 C 663.33 923.87 666.85 931.02 667.00 937.00
C 671.36 938.23 673.21 943.06 679.00 942.00
C 675.79 936.22 677.49 922.76 684.00 924.00 C 690.51 925.24 704.85 921.30 705.97 927.03 C 707.10 932.76 708.57 948.61 702.97 949.97 C 697.37 951.34 684.20 950.38 678.00 950.00 C 671.80 949.62 668.91 947.43 663.77 945.79 C 658.63 944.14 656.98 937.13 656.00 931.00 C 655.02 924.87 659.28 918.28 659.00 914.00
C 665.22 910.60 668.83 908.72 676.01 907.99 C 683.18 907.27 694.19 904.39 703.00 906.00
M 799.00 906.00 
C 799.09 920.54 798.88 936.18 799.00 950.00
C 784.09 949.89 769.29 951.47 761.00 942.00
C 759.55 932.32 762.41 924.54 770.00 918.00
C 775.16 920.67 784.06 918.13 791.00 919.00
C 790.89 914.60 791.52 910.05 790.00 906.00
C 793.00 906.00 796.00 906.00 799.00 906.00
M 1068.00 906.00 
C 1070.19 918.58 1050.93 913.78 1043.30 914.64 C 1035.67 915.50 1030.50 917.61 1030.98 927.03 C 1031.46 936.45 1033.08 940.04 1043.00 941.00
C 1040.95 930.76 1042.88 922.88 1053.00 924.00 C 1063.12 925.12 1072.65 921.31 1071.00 933.00 C 1069.35 944.69 1075.79 951.01 1061.00 950.00 C 1046.21 948.99 1032.00 951.76 1024.75 942.25 C 1017.49 932.75 1020.36 917.51 1027.78 911.44 C 1035.19 905.36 1054.82 907.60 1068.00 906.00
M 1217.00 949.00 
C 1209.45 949.43 1199.50 948.35 1192.75 949.20 C 1186.01 950.05 1185.65 942.52 1179.00 942.00
C 1179.55 936.43 1178.57 930.05 1179.00 925.00
C 1182.14 925.88 1186.73 920.75 1188.00 918.00
C 1193.16 920.67 1202.06 918.13 1209.00 919.00
C 1209.00 914.67 1209.00 910.33 1209.00 906.00
C 1220.23 903.58 1216.69 915.24 1217.00 923.00 C 1217.31 930.76 1216.77 941.02 1217.00 949.00
M 906.00 942.00 
C 905.21 938.83 903.22 929.59 905.00 926.00
C 901.10 925.07 895.94 927.83 896.01 921.99 C 896.08 916.15 900.90 918.53 905.00 918.00
C 905.00 915.00 905.00 912.00 905.00 909.00
C 908.00 909.00 911.00 909.00 914.00 909.00
C 914.00 912.33 914.00 915.67 914.00 919.00
C 917.94 919.16 926.78 914.18 927.97 921.03 C 929.16 927.88 918.74 925.98 914.00 926.00
C 911.46 937.83 915.62 946.76 929.00 943.00
C 930.48 956.07 905.64 950.00 906.00 942.00
M 1159.00 919.00 
C 1164.81 919.02 1170.40 921.04 1172.97 929.03 C 1175.55 937.02 1169.23 942.89 1166.00 948.00
C 1162.84 945.34 1163.83 951.17 1160.00 948.00
C 1160.04 948.00 1160.00 949.00 1160.00 949.00
C 1157.93 951.14 1143.01 951.07 1141.00 949.00
C 1140.75 948.74 1141.00 948.00 1141.00 948.00
C 1136.88 948.08 1137.68 947.83 1133.00 947.00
C 1132.37 941.85 1126.56 939.83 1128.00 933.00 C 1129.45 926.17 1129.13 925.91 1133.00 920.00
C 1133.61 923.07 1138.95 920.16 1137.00 918.00
C 1138.56 917.59 1139.69 918.46 1141.00 919.00
C 1143.01 918.46 1146.01 917.00 1150.00 917.00 C 1153.99 917.00 1156.93 918.44 1159.00 919.00
M 1257.00 949.00 
C 1253.26 950.71 1245.47 950.57 1241.00 950.00 C 1236.53 949.43 1227.08 952.08 1224.00 949.00
C 1222.29 947.29 1223.24 944.39 1223.00 942.00
C 1228.67 944.24 1237.09 942.38 1243.00 943.00 C 1248.91 943.62 1260.23 943.91 1254.00 936.00
C 1243.31 937.50 1230.06 939.25 1223.00 932.00
C 1223.57 927.14 1223.96 924.20 1224.00 921.00
C 1228.78 918.50 1233.98 915.97 1242.00 917.00 C 1250.02 918.03 1264.41 912.55 1262.00 925.00
C 1252.89 924.15 1241.36 926.44 1232.00 924.00
C 1230.48 926.03 1230.71 928.96 1232.00 931.00
C 1239.54 928.04 1253.43 930.95 1261.00 931.00
C 1264.54 934.44 1264.14 939.35 1264.00 944.00
C 1260.91 941.88 1260.28 949.35 1257.00 949.00
M 743.00 926.00 
C 737.96 926.46 720.29 928.29 717.00 925.00
C 715.29 923.29 716.24 920.39 716.00 918.00
C 724.89 920.19 744.91 914.10 751.74 920.26 C 758.57 926.41 750.95 941.49 754.00 950.00
C 741.71 950.06 727.33 950.30 717.00 949.00
C 714.09 945.29 712.44 941.87 712.00 936.00
C 714.11 939.96 715.08 933.99 714.00 932.00
C 722.24 929.72 735.76 928.82 746.00 931.00
C 745.65 929.23 745.74 923.99 743.00 926.00
M 835.00 948.00 
C 835.04 948.00 835.00 949.00 835.00 949.00
C 832.28 951.82 823.91 949.61 821.00 949.00
C 813.61 947.47 808.46 946.23 806.65 937.31 C 804.83 928.38 809.45 924.35 816.00 918.00
C 825.33 918.00 834.67 918.00 844.00 918.00
C 842.29 930.77 842.41 945.23 844.00 958.00
C 842.38 958.35 839.45 960.07 841.00 962.00
C 832.73 961.61 822.94 962.27 814.00 962.00
C 809.38 945.72 844.15 964.21 835.00 948.00
M 891.00 949.00 
C 887.57 952.43 880.41 948.25 876.00 950.00 C 871.59 951.75 864.60 948.23 864.00 948.00
C 850.99 947.46 847.01 935.03 852.59 925.25 C 858.18 915.48 877.13 918.49 888.00 918.00
C 886.34 919.71 891.17 923.59 893.00 922.00
C 892.66 926.32 894.66 936.51 886.77 936.77 C 878.89 937.03 868.35 934.97 860.00 936.00
C 859.18 939.97 863.17 938.56 862.00 942.00
C 871.45 943.54 882.58 943.74 892.00 942.00
C 891.48 944.19 893.13 947.62 891.00 949.00
M 992.00 925.00 
C 995.12 931.11 992.67 935.93 994.00 943.00 C 995.33 950.07 986.99 952.66 985.00 948.00
C 980.42 937.26 990.99 924.68 975.00 924.00 C 959.01 923.32 964.94 935.42 964.00 948.00
C 952.83 951.03 956.69 940.30 956.00 933.00 C 955.31 925.70 954.71 916.23 964.00 918.00 C 973.29 919.77 978.11 916.67 987.00 918.00
C 987.49 920.70 991.63 921.70 992.00 925.00
M 1110.00 949.00 
C 1104.18 950.21 1095.74 950.86 1090.00 949.00
C 1085.50 947.54 1079.53 944.55 1078.42 939.23 C 1077.32 933.91 1077.49 925.92 1083.75 921.75 C 1090.02 917.59 1099.92 920.31 1108.00 919.00 C 1116.08 917.69 1116.16 923.15 1122.00 926.00
C 1122.92 930.80 1120.57 936.13 1122.00 942.00
C 1116.08 943.60 1116.41 949.87 1110.00 949.00
M 1353.00 1035.00 
C 1352.73 1032.18 1352.73 1028.76 1353.00 1026.00
C 1351.64 1011.99 1351.38 997.27 1350.00 983.00
C 1349.77 980.58 1349.00 977.09 1349.00 974.00
C 1349.00 965.82 1349.83 959.12 1348.00 952.00
C 1363.00 952.00 1378.00 952.00 1393.00 952.00
C 1394.68 967.85 1394.34 984.51 1395.00 1000.00 C 1395.66 1015.50 1397.37 1034.41 1397.00 1050.00 C 1396.63 1065.59 1403.32 1079.54 1400.00 1097.00
C 1401.93 1106.16 1403.54 1118.48 1403.00 1130.00 C 1402.46 1141.52 1403.94 1155.17 1402.00 1166.00
C 1399.95 1177.43 1396.09 1180.63 1391.76 1187.77 C 1387.44 1194.91 1381.63 1200.51 1374.75 1205.19 C 1367.88 1209.88 1362.07 1213.09 1353.75 1214.20 C 1345.43 1215.31 1331.65 1216.73 1319.00 1216.00 C 1306.35 1215.27 1290.43 1216.33 1277.00 1216.00 C 1263.57 1215.67 1248.83 1216.15 1235.00 1216.00 C 1221.17 1215.86 1205.99 1216.07 1192.00 1216.00 C 1178.01 1215.93 1164.03 1216.03 1150.00 1216.00 C 1135.97 1215.97 1122.10 1216.01 1108.00 1216.00 C 1093.90 1215.99 1079.11 1216.01 1065.00 1216.00 C 1050.89 1215.99 1037.09 1216.00 1023.00 1216.00 C 1008.91 1216.00 995.12 1216.00 981.00 1216.00 C 966.88 1216.00 952.12 1216.00 938.00 1216.00 C 923.88 1216.00 910.09 1216.00 896.00 1216.00 C 881.91 1216.00 868.12 1216.00 854.00 1216.00 C 839.88 1216.00 825.11 1216.00 811.00 1216.00 C 796.89 1216.00 783.05 1216.00 769.00 1216.00 C 754.95 1216.00 741.03 1215.99 727.00 1216.00 C 712.97 1216.01 697.91 1215.98 684.00 1216.00 C 670.09 1216.02 655.61 1215.96 642.00 1216.00 C 628.39 1216.04 613.04 1215.91 600.00 1216.00 C 586.96 1216.09 574.92 1217.04 565.71 1213.29 C 556.49 1209.55 554.57 1209.41 545.75 1203.25 C 536.94 1197.08 534.04 1190.95 529.30 1183.70 C 524.56 1176.44 526.62 1170.71 521.00 1163.00
C 522.55 1156.41 519.47 1149.68 522.00 1141.00 C 524.52 1132.32 521.78 1120.54 523.11 1112.11 C 524.44 1103.68 523.68 1094.18 524.80 1085.75 C 525.92 1077.33 525.85 1068.00 525.94 1058.92 C 526.02 1049.84 527.80 1039.93 528.00 1031.00 C 528.19 1022.07 529.14 1012.83 529.00 1004.00 C 528.86 995.16 530.45 986.98 531.00 978.00 C 531.55 969.02 531.05 960.98 531.00 952.00
C 546.00 952.00 561.00 952.00 576.00 952.00
C 576.83 965.23 572.67 975.84 573.22 989.22 C 573.77 1002.60 571.70 1013.19 572.97 1026.03 C 574.24 1038.88 567.86 1051.80 569.00 1065.00 C 570.14 1078.20 568.77 1092.40 567.01 1104.01 C 565.25 1115.63 568.10 1130.04 566.00 1142.00 C 563.90 1153.96 567.09 1166.80 577.92 1171.13 C 588.75 1175.46 604.52 1172.25 619.00 1173.00 C 633.48 1173.75 650.87 1172.66 666.00 1173.00 C 681.13 1173.34 697.59 1172.85 713.00 1173.00 C 728.41 1173.15 744.48 1172.93 760.00 1173.00 C 775.52 1173.07 791.47 1172.97 807.00 1173.00 C 822.53 1173.03 837.44 1172.99 853.00 1173.00 C 868.56 1173.01 884.39 1172.99 900.00 1173.00 C 915.61 1173.01 931.36 1173.00 947.00 1173.00 C 962.64 1173.00 978.35 1173.00 994.00 1173.00 C 1009.65 1173.00 1025.35 1173.00 1041.00 1173.00 C 1056.65 1173.00 1072.37 1173.00 1088.00 1173.00 C 1103.63 1173.00 1119.40 1173.00 1135.00 1173.00 C 1150.60 1173.00 1166.48 1173.00 1182.00 1173.00 C 1197.52 1173.00 1213.66 1173.00 1229.00 1173.00 C 1244.34 1173.00 1261.06 1173.01 1276.00 1173.00 C 1290.94 1172.99 1308.94 1173.01 1323.00 1173.00 C 1337.06 1172.99 1350.80 1174.84 1354.00 1163.00
C 1365.00 1155.27 1358.50 1138.00 1358.00 1125.00 C 1357.50 1112.00 1356.28 1094.94 1357.00 1080.00 C 1357.72 1065.06 1352.61 1049.57 1353.00 1035.00
M 816.00 1013.00 
C 811.87 1016.37 824.12 1013.04 821.00 1019.00
C 805.09 1020.73 795.03 1032.00 795.00 1046.00
C 790.14 1041.43 787.79 1030.97 793.39 1024.25 C 799.00 1017.52 807.54 1012.72 816.00 1013.00
M 1120.00 1016.00 
C 1126.94 1024.38 1135.27 1037.40 1126.00 1046.00
C 1125.13 1037.75 1123.71 1033.95 1116.25 1026.75 C 1108.79 1019.56 1104.48 1021.10 1098.00 1016.00
C 1101.64 1015.30 1104.51 1013.23 1110.01 1013.01 C 1115.51 1012.78 1114.47 1017.48 1120.00 1016.00
M 1113.00 1033.00 
C 1112.58 1045.66 1094.20 1049.92 1088.25 1056.26 C 1082.29 1062.61 1072.69 1067.25 1065.25 1071.39 C 1057.81 1075.53 1049.70 1081.26 1041.43 1083.79 C 1033.16 1086.31 1025.74 1092.17 1015.70 1094.70 C 1005.65 1097.23 994.35 1099.05 981.93 1100.93 C 969.50 1102.80 951.88 1101.36 939.78 1100.22 C 927.68 1099.08 915.50 1098.72 906.32 1095.66 C 897.15 1092.61 885.94 1089.32 876.92 1085.07 C 867.91 1080.82 862.85 1077.44 853.75 1073.20 C 844.65 1068.96 836.36 1062.04 829.81 1056.75 C 823.27 1051.46 808.97 1046.80 806.00 1034.00
C 808.37 1035.22 808.29 1031.75 811.00 1032.00
C 821.41 1040.95 828.16 1047.57 837.92 1053.13 C 847.67 1058.69 855.87 1066.26 864.13 1069.92 C 872.39 1073.58 880.04 1077.52 888.75 1080.39 C 897.47 1083.27 907.51 1088.33 918.00 1088.00
C 919.48 1092.91 921.78 1088.18 931.01 1090.99 C 940.23 1093.81 958.85 1095.02 972.00 1094.00 C 985.15 1092.98 992.40 1090.19 1003.23 1088.78 C 1014.05 1087.37 1024.50 1080.67 1032.08 1079.93 C 1039.65 1079.19 1037.33 1074.49 1043.92 1073.87 C 1050.50 1073.24 1054.01 1069.36 1059.23 1066.79 C 1064.45 1064.21 1067.56 1061.30 1071.70 1058.36 C 1075.84 1055.41 1081.00 1055.24 1084.75 1050.61 C 1088.50 1045.98 1101.89 1038.77 1107.00 1031.00
C 1109.72 1031.95 1110.58 1031.52 1113.00 1033.00 Z"/>
</g>
<g fill="#000000" fill-opacity="0.34" stroke="None">
<path d="
M 945.00 157.00 
C 956.04 156.00 968.96 156.00 980.00 157.00
C 977.27 154.19 966.02 156.12 962.00 156.00 C 957.98 155.88 947.62 154.29 945.00 157.00 Z"/>
</g>
<g fill="#000000" fill-opacity="0.99" stroke="None">
<path d="
M 980.00 158.00 
C 968.51 158.62 956.50 158.44 945.00 158.00
C 930.86 158.40 913.74 160.89 901.30 164.29 C 888.87 167.69 879.82 172.42 867.23 178.23 C 854.64 184.04 843.88 189.03 834.00 199.00
C 830.26 197.99 825.90 202.81 822.19 205.75 C 818.48 208.69 814.20 212.52 809.25 218.25 C 804.30 223.98 800.88 224.61 797.25 230.25 C 793.62 235.89 788.10 238.08 785.26 243.26 C 782.41 248.43 781.86 249.00 777.08 256.08 C 772.31 263.17 765.72 274.87 763.30 281.29 C 760.89 287.70 758.99 288.24 757.76 293.61 C 756.53 298.98 752.85 299.90 752.21 304.76 C 751.57 309.63 748.79 311.88 748.19 317.75 C 747.59 323.62 745.12 327.59 744.20 333.75 C 743.28 339.92 742.40 344.69 741.22 351.78 C 740.04 358.87 740.50 366.66 741.00 374.00
C 727.55 373.94 712.26 374.08 699.00 374.00 C 685.74 373.92 670.67 374.15 658.00 374.00 C 645.33 373.85 629.37 374.00 618.25 374.80 C 607.12 375.61 606.51 378.45 596.00 380.00
C 593.02 384.09 587.99 387.92 582.75 391.61 C 577.51 395.30 574.37 399.47 571.30 405.30 C 568.23 411.14 565.78 411.96 563.35 418.31 C 560.92 424.65 561.40 430.53 561.00 439.00 C 560.60 447.47 559.30 457.28 558.00 465.00 C 556.70 472.72 560.03 483.17 557.11 490.11 C 554.19 497.05 559.69 506.39 556.90 514.90 C 554.11 523.42 556.39 530.87 554.98 539.97 C 553.57 549.08 554.92 557.24 553.99 565.99 C 553.07 574.74 552.82 584.34 551.80 592.75 C 550.78 601.16 551.73 606.98 550.00 615.00
C 565.33 615.00 580.67 615.00 596.00 615.00
C 595.46 596.70 596.56 577.23 597.67 556.67 C 598.78 536.11 600.19 517.03 602.00 497.00 C 603.81 476.97 601.92 457.31 604.20 438.25 C 606.48 419.18 621.19 419.99 641.00 419.00 C 660.81 418.01 683.78 414.69 707.00 416.00 C 730.23 417.31 755.40 415.40 779.00 416.00 C 802.60 416.60 827.29 415.72 851.00 416.00 C 874.71 416.28 898.27 415.86 922.00 416.00 C 945.73 416.14 970.31 415.90 994.00 416.00 C 1017.69 416.10 1041.45 415.88 1065.00 416.00 C 1088.55 416.12 1113.78 415.78 1137.00 416.00 C 1160.22 416.22 1186.62 415.54 1209.00 416.00 C 1231.38 416.46 1259.50 414.97 1280.00 416.00 C 1300.50 417.03 1313.20 417.19 1318.42 432.23 C 1323.65 447.27 1321.94 468.78 1323.01 487.99 C 1324.07 507.21 1325.37 530.74 1326.22 550.78 C 1327.07 570.82 1331.10 593.48 1329.00 615.00
C 1343.35 614.97 1360.63 614.97 1375.00 615.00
C 1370.78 600.37 1371.35 579.58 1371.07 563.08 C 1370.78 546.58 1369.22 532.60 1369.00 516.00 C 1368.78 499.40 1365.37 482.70 1365.40 466.74 C 1365.44 450.78 1364.57 435.86 1363.00 422.00
C 1357.45 415.33 1358.07 408.61 1351.57 401.77 C 1345.07 394.93 1338.26 385.43 1329.75 382.59 C 1321.24 379.76 1318.96 375.27 1307.75 374.40 C 1296.55 373.52 1282.29 374.16 1269.00 374.00 C 1255.71 373.84 1239.79 374.09 1226.00 374.00 C 1212.21 373.91 1196.93 374.06 1183.00 374.00
C 1183.91 367.09 1183.00 360.77 1182.33 356.67 C 1181.66 352.57 1180.34 343.98 1182.00 341.00
C 1178.27 332.10 1177.66 322.80 1174.35 314.70 C 1171.04 306.59 1171.22 300.40 1167.64 293.71 C 1164.07 287.02 1161.02 278.58 1157.71 272.30 C 1154.41 266.03 1147.11 258.08 1146.00 251.00
C 1143.71 250.82 1139.48 249.27 1142.00 246.00
C 1134.24 242.10 1131.81 233.18 1123.75 227.25 C 1115.69 221.31 1110.20 211.24 1102.92 207.09 C 1095.64 202.94 1090.68 196.04 1083.70 191.35 C 1076.72 186.67 1071.14 186.40 1064.30 181.71 C 1057.47 177.02 1053.29 176.31 1045.25 172.20 C 1037.20 168.09 1029.04 167.30 1021.23 164.77 C 1013.42 162.24 1002.70 160.89 997.00 158.00
C 992.06 159.75 986.84 157.63 980.00 158.00
M 995.00 202.00 
C 997.60 206.09 1002.48 205.77 1007.00 205.00
C 1006.23 208.50 1013.80 207.64 1018.25 209.19 C 1022.71 210.74 1024.84 212.66 1029.71 213.64 C 1034.59 214.63 1036.76 218.09 1042.77 220.24 C 1048.78 222.38 1060.27 229.40 1065.70 234.30 C 1071.12 239.20 1073.23 239.95 1078.25 244.75 C 1083.26 249.55 1087.28 251.77 1091.25 256.75 C 1095.22 261.73 1101.89 262.13 1101.00 269.00
C 1106.78 274.33 1113.52 283.77 1117.77 290.24 C 1122.02 296.70 1124.04 304.86 1127.19 312.25 C 1130.34 319.64 1133.57 329.37 1135.71 338.30 C 1137.84 347.22 1138.03 362.41 1141.00 374.00
C 1022.00 374.00 903.00 374.00 784.00 374.00
C 784.03 358.94 787.53 347.57 789.97 335.97 C 792.41 324.36 795.62 318.07 797.00 308.00
C 801.54 303.40 804.64 296.64 808.30 290.30 C 811.97 283.97 817.80 277.00 819.00 270.00
C 824.51 266.26 828.48 262.60 834.25 256.25 C 840.01 249.90 847.28 244.87 852.75 238.75 C 858.22 232.63 864.49 230.79 870.70 226.70 C 876.91 222.60 882.22 218.59 888.70 216.69 C 895.17 214.80 896.81 211.09 903.90 209.88 C 910.99 208.68 917.48 204.90 924.00 206.00
C 926.52 202.16 930.45 203.95 936.68 202.66 C 942.90 201.37 948.27 201.74 955.00 200.00 C 961.73 198.26 971.74 201.57 976.13 201.92 C 980.52 202.27 991.70 203.36 995.00 202.00 Z"/>
</g>
<g fill="#000000" fill-opacity="0.84" stroke="None">
<path d="
M 945.00 158.00 
C 956.50 158.44 968.51 158.62 980.00 158.00
C 980.00 158.00 980.25 157.26 980.00 157.00
C 968.96 156.00 956.04 156.00 945.00 157.00
C 945.00 157.00 944.96 158.00 945.00 158.00 Z"/>
</g>
<g fill="#000000" fill-opacity="0.00" stroke="None">
<path d="
M 995.00 202.00 
C 991.70 203.36 980.52 202.27 976.13 201.92 C 971.74 201.57 961.73 198.26 955.00 200.00 C 948.27 201.74 942.90 201.37 936.68 202.66 C 930.45 203.95 926.52 202.16 924.00 206.00
C 917.48 204.90 910.99 208.68 903.90 209.88 C 896.81 211.09 895.17 214.80 888.70 216.69 C 882.22 218.59 876.91 222.60 870.70 226.70 C 864.49 230.79 858.22 232.63 852.75 238.75 C 847.28 244.87 840.01 249.90 834.25 256.25 C 828.48 262.60 824.51 266.26 819.00 270.00
C 817.80 277.00 811.97 283.97 808.30 290.30 C 804.64 296.64 801.54 303.40 797.00 308.00
C 795.62 318.07 792.41 324.36 789.97 335.97 C 787.53 347.57 784.03 358.94 784.00 374.00
C 903.00 374.00 1022.00 374.00 1141.00 374.00
C 1138.03 362.41 1137.84 347.22 1135.71 338.30 C 1133.57 329.37 1130.34 319.64 1127.19 312.25 C 1124.04 304.86 1122.02 296.70 1117.77 290.24 C 1113.52 283.77 1106.78 274.33 1101.00 269.00
C 1101.89 262.13 1095.22 261.73 1091.25 256.75 C 1087.28 251.77 1083.26 249.55 1078.25 244.75 C 1073.23 239.95 1071.12 239.20 1065.70 234.30 C 1060.27 229.40 1048.78 222.38 1042.77 220.24 C 1036.76 218.09 1034.59 214.63 1029.71 213.64 C 1024.84 212.66 1022.71 210.74 1018.25 209.19 C 1013.80 207.64 1006.23 208.50 1007.00 205.00
C 1002.48 205.77 997.60 206.09 995.00 202.00 Z"/>
</g>
<g fill="#FF9C5F" fill-opacity="0.59" stroke="None">
<path d="
M 664.00 647.00 
C 666.12 647.21 668.14 647.20 671.00 648.00 C 673.86 648.80 677.08 646.19 678.00 646.00
C 673.26 646.00 668.06 646.61 664.00 647.00 Z"/>
</g>
<g fill="#FF9C5E" fill-opacity="0.98" stroke="None">
<path d="
M 664.00 647.00 
C 636.74 649.64 610.02 655.13 589.75 674.75 C 569.48 694.37 563.35 722.09 563.00 749.00 C 562.65 775.91 568.79 806.57 588.25 824.75 C 607.70 842.94 633.23 856.51 660.00 854.00
C 705.98 849.69 753.55 855.15 800.00 853.00
C 800.00 814.67 800.00 776.33 800.00 738.00
C 757.33 738.00 714.67 738.00 672.00 738.00
C 672.00 764.00 672.00 790.00 672.00 816.00
C 638.13 818.30 613.53 791.89 611.00 760.00
C 608.28 751.50 609.59 744.33 612.00 737.00
C 615.34 703.88 640.55 684.04 675.00 684.00 C 709.45 683.96 755.50 684.03 791.00 684.00
C 791.00 671.33 791.00 658.67 791.00 646.00
C 753.34 646.00 715.66 646.00 678.00 646.00
C 677.08 646.19 673.86 648.80 671.00 648.00 C 668.14 647.20 666.12 647.21 664.00 647.00
M 755.00 817.00 
C 754.74 817.25 754.00 817.00 754.00 817.00
C 741.33 817.00 728.67 817.00 716.00 817.00
C 716.00 803.00 716.00 789.00 716.00 775.00
C 716.98 772.59 728.86 774.16 734.00 774.00 C 739.14 773.84 749.45 773.50 755.00 774.00
C 758.12 777.01 756.12 790.35 756.00 795.00 C 755.88 799.65 758.22 813.87 755.00 817.00 Z"/>
</g>
<g fill="#FF9C5E" fill-opacity="0.96" stroke="None">
<path d="
M 1098.00 739.00 
C 1098.80 745.39 1100.12 754.67 1099.00 763.00
C 1101.13 791.28 1109.40 819.01 1135.92 836.08 C 1162.44 853.15 1192.13 855.75 1226.00 855.00 C 1259.87 854.25 1302.35 855.56 1337.00 855.00
C 1337.00 815.34 1337.00 775.66 1337.00 736.00
C 1293.33 736.00 1249.67 736.00 1206.00 736.00
C 1206.00 762.67 1206.00 789.33 1206.00 816.00
C 1168.24 817.50 1146.03 787.25 1146.00 752.00 C 1145.97 716.75 1164.10 686.08 1203.00 685.00 C 1241.89 683.91 1285.37 683.73 1325.00 684.00
C 1325.00 671.33 1325.00 658.67 1325.00 646.00
C 1276.41 647.13 1215.72 642.36 1170.07 651.07 C 1124.43 659.78 1101.77 696.11 1098.00 739.00
M 1290.00 775.00 
C 1290.00 789.00 1290.00 803.00 1290.00 817.00
C 1277.00 817.00 1264.00 817.00 1251.00 817.00
C 1251.00 803.00 1251.00 789.00 1251.00 775.00
C 1264.00 775.00 1277.00 775.00 1290.00 775.00 Z"/>
</g>
<g fill="#000000" fill-opacity="0.98" stroke="None">
<path d="
M 1046.00 673.00 
C 1034.33 673.00 1022.67 673.00 1011.00 673.00
C 1010.34 710.25 1012.33 748.17 1010.00 785.00
C 1000.79 776.94 992.67 767.85 983.75 759.25 C 974.83 750.64 967.06 742.46 958.75 733.25 C 950.44 724.04 941.82 717.40 933.25 707.75 C 924.67 698.11 916.64 693.09 907.75 682.25 C 898.86 671.41 878.10 676.25 865.00 674.00
C 865.00 726.00 865.00 778.00 865.00 830.00
C 876.14 827.70 888.42 829.64 900.00 829.00
C 900.00 791.67 900.00 754.33 900.00 717.00
C 938.03 752.64 972.94 791.06 1009.00 829.00
C 1020.73 827.34 1034.25 827.34 1046.00 829.00
C 1046.00 777.00 1046.00 725.00 1046.00 673.00 Z"/>
</g>
<g fill="#FF9C5D" fill-opacity="0.53" stroke="None">
<path d="
M 672.00 738.00 
C 714.67 738.00 757.33 738.00 800.00 738.00
C 800.00 776.33 800.00 814.67 800.00 853.00
C 753.55 855.15 705.98 849.69 660.00 854.00
C 706.01 856.34 754.17 854.33 801.00 855.00
C 801.00 815.34 801.00 775.66 801.00 736.00
C 792.29 736.09 782.62 735.88 774.00 736.00 C 765.38 736.12 756.35 735.76 748.00 736.00 C 739.65 736.24 729.88 735.48 722.00 736.00 C 714.12 736.52 702.88 734.86 696.00 736.00 C 689.12 737.14 674.63 732.57 672.00 738.00 Z"/>
</g>
<g fill="#FF9A5D" fill-opacity="0.54" stroke="None">
<path d="
M 611.00 760.00 
C 610.40 752.38 610.99 744.24 612.00 737.00
C 609.59 744.33 608.28 751.50 611.00 760.00 Z"/>
</g>
<g fill="#FF9C5E" fill-opacity="0.62" stroke="None">
<path d="
M 1099.00 763.00 
C 1100.12 754.67 1098.80 745.39 1098.00 739.00
C 1097.30 746.92 1098.33 755.80 1099.00 763.00 Z"/>
</g>
<g fill="#FE9C5D" fill-opacity="0.47" stroke="None">
<path d="
M 716.00 775.00 
C 721.62 776.84 729.04 774.31 735.00 775.00 C 740.96 775.69 747.94 774.99 754.00 775.00
C 754.50 775.00 755.00 775.00 755.00 775.00
C 755.00 774.50 755.00 774.00 755.00 774.00
C 749.45 773.50 739.14 773.84 734.00 774.00 C 728.86 774.16 716.98 772.59 716.00 775.00 Z"/>
</g>
<g fill="#FE9C5D" fill-opacity="0.72" stroke="None">
<path d="
M 755.00 775.00 
C 755.00 788.81 756.24 803.26 755.00 817.00
C 758.22 813.87 755.88 799.65 756.00 795.00 C 756.12 790.35 758.12 777.01 755.00 774.00
C 755.00 774.00 755.00 774.50 755.00 775.00 Z"/>
</g>
<g fill="#000000" fill-opacity="0.00" stroke="None">
<path d="
M 754.00 817.00 
C 752.80 803.76 752.80 788.24 754.00 775.00
C 747.94 774.99 740.96 775.69 735.00 775.00 C 729.04 774.31 721.62 776.84 716.00 775.00
C 716.00 789.00 716.00 803.00 716.00 817.00
C 728.67 817.00 741.33 817.00 754.00 817.00 Z"/>
</g>
<g fill="#FE9E5D" fill-opacity="0.22" stroke="None">
<path d="
M 754.00 817.00 
C 754.00 817.00 754.74 817.25 755.00 817.00
C 756.24 803.26 755.00 788.81 755.00 775.00
C 755.00 775.00 754.50 775.00 754.00 775.00
C 752.80 788.24 752.80 803.76 754.00 817.00 Z"/>
</g>
<g fill="#000000" fill-opacity="0.00" stroke="None">
<path d="
M 1290.00 775.00 
C 1277.00 775.00 1264.00 775.00 1251.00 775.00
C 1251.00 789.00 1251.00 803.00 1251.00 817.00
C 1264.00 817.00 1277.00 817.00 1290.00 817.00
C 1290.00 803.00 1290.00 789.00 1290.00 775.00 Z"/>
</g>
<g fill="#000000" fill-opacity="0.88" stroke="None">
<path d="
M 703.00 906.00 
C 694.19 904.39 683.18 907.27 676.01 907.99 C 668.83 908.72 665.22 910.60 659.00 914.00
C 659.28 918.28 655.02 924.87 656.00 931.00 C 656.98 937.13 658.63 944.14 663.77 945.79 C 668.91 947.43 671.80 949.62 678.00 950.00 C 684.20 950.38 697.37 951.34 702.97 949.97 C 708.57 948.61 707.10 932.76 705.97 927.03 C 704.85 921.30 690.51 925.24 684.00 924.00 C 677.49 922.76 675.79 936.22 679.00 942.00
C 673.21 943.06 671.36 938.23 667.00 937.00
C 666.85 931.02 663.33 923.87 667.25 918.25 C 671.16 912.63 677.45 915.14 683.00 914.00 C 688.55 912.86 707.84 918.64 703.00 906.00
M 696.00 932.00 
C 696.00 935.33 696.00 938.67 696.00 942.00
C 693.00 942.00 690.00 942.00 687.00 942.00
C 687.00 938.67 687.00 935.33 687.00 932.00
C 690.00 932.00 693.00 932.00 696.00 932.00 Z"/>
</g>
<g fill="#000000" fill-opacity="0.93" stroke="None">
<path d="
M 799.00 906.00 
C 796.00 906.00 793.00 906.00 790.00 906.00
C 791.52 910.05 790.89 914.60 791.00 919.00
C 784.06 918.13 775.16 920.67 770.00 918.00
C 762.41 924.54 759.55 932.32 761.00 942.00
C 769.29 951.47 784.09 949.89 799.00 950.00
C 798.88 936.18 799.09 920.54 799.00 906.00
M 790.00 925.00 
C 791.46 926.46 792.42 939.97 791.00 942.00
C 788.16 946.05 775.92 941.75 774.00 941.00
C 772.15 940.86 770.73 941.12 769.00 939.00
C 769.38 935.69 769.45 931.48 769.00 928.00
C 771.11 929.87 772.76 926.22 775.00 926.00
C 775.21 925.89 775.00 925.00 775.00 925.00
C 776.93 923.01 788.11 923.11 790.00 925.00 Z"/>
</g>
<g fill="#000000" fill-opacity="0.88" stroke="None">
<path d="
M 1068.00 906.00 
C 1054.82 907.60 1035.19 905.36 1027.78 911.44 C 1020.36 917.51 1017.49 932.75 1024.75 942.25 C 1032.00 951.76 1046.21 948.99 1061.00 950.00 C 1075.79 951.01 1069.35 944.69 1071.00 933.00 C 1072.65 921.31 1063.12 925.12 1053.00 924.00 C 1042.88 922.88 1040.95 930.76 1043.00 941.00
C 1033.08 940.04 1031.46 936.45 1030.98 927.03 C 1030.50 917.61 1035.67 915.50 1043.30 914.64 C 1050.93 913.78 1070.19 918.58 1068.00 906.00
M 1061.00 932.00 
C 1061.00 935.33 1061.00 938.67 1061.00 942.00
C 1058.00 942.00 1055.00 942.00 1052.00 942.00
C 1052.00 938.67 1052.00 935.33 1052.00 932.00
C 1055.00 932.00 1058.00 932.00 1061.00 932.00 Z"/>
</g>
<g fill="#000000" fill-opacity="0.94" stroke="None">
<path d="
M 1217.00 949.00 
C 1216.77 941.02 1217.31 930.76 1217.00 923.00 C 1216.69 915.24 1220.23 903.58 1209.00 906.00
C 1209.00 910.33 1209.00 914.67 1209.00 919.00
C 1202.06 918.13 1193.16 920.67 1188.00 918.00
C 1186.73 920.75 1182.14 925.88 1179.00 925.00
C 1178.57 930.05 1179.55 936.43 1179.00 942.00
C 1185.65 942.52 1186.01 950.05 1192.75 949.20 C 1199.50 948.35 1209.45 949.43 1217.00 949.00
M 1208.00 925.00 
C 1209.66 926.66 1210.18 938.55 1209.00 941.00
C 1207.09 944.96 1195.66 943.11 1192.00 942.00
C 1184.62 939.76 1183.77 929.03 1193.00 926.00
C 1193.15 925.95 1193.00 925.00 1193.00 925.00
C 1194.93 923.01 1206.11 923.11 1208.00 925.00 Z"/>
</g>
<g fill="#000000" fill-opacity="0.85" stroke="None">
<path d="
M 905.00 926.00 
C 909.48 927.07 906.05 937.22 906.00 942.00
C 905.64 950.00 930.48 956.07 929.00 943.00
C 915.62 946.76 911.46 937.83 914.00 926.00
C 918.74 925.98 929.16 927.88 927.97 921.03 C 926.78 914.18 917.94 919.16 914.00 919.00
C 914.00 915.67 914.00 912.33 914.00 909.00
C 911.00 909.00 908.00 909.00 905.00 909.00
C 905.00 912.00 905.00 915.00 905.00 918.00
C 900.90 918.53 896.08 916.15 896.01 921.99 C 895.94 927.83 901.10 925.07 905.00 926.00 Z"/>
</g>
<g fill="#000000" fill-opacity="0.35" stroke="None">
<path d="
M 1141.00 919.00 
C 1147.00 919.11 1153.00 918.98 1159.00 919.00
C 1156.93 918.44 1153.99 917.00 1150.00 917.00 C 1146.01 917.00 1143.01 918.46 1141.00 919.00 Z"/>
</g>
<g fill="#000000" fill-opacity="0.87" stroke="None">
<path d="
M 1224.00 949.00 
C 1233.40 944.72 1247.85 950.83 1257.00 949.00
C 1260.28 949.35 1260.91 941.88 1264.00 944.00
C 1264.14 939.35 1264.54 934.44 1261.00 931.00
C 1253.43 930.95 1239.54 928.04 1232.00 931.00
C 1230.71 928.96 1230.48 926.03 1232.00 924.00
C 1241.36 926.44 1252.89 924.15 1262.00 925.00
C 1264.41 912.55 1250.02 918.03 1242.00 917.00 C 1233.98 915.97 1228.78 918.50 1224.00 921.00
C 1223.96 924.20 1223.57 927.14 1223.00 932.00
C 1230.06 939.25 1243.31 937.50 1254.00 936.00
C 1260.23 943.91 1248.91 943.62 1243.00 943.00 C 1237.09 942.38 1228.67 944.24 1223.00 942.00
C 1223.24 944.39 1222.29 947.29 1224.00 949.00 Z"/>
</g>
<g fill="#000000" fill-opacity="0.90" stroke="None">
<path d="
M 717.00 925.00 
C 722.32 925.55 738.51 920.38 743.00 925.00
C 743.25 925.26 743.00 926.00 743.00 926.00
C 745.74 923.99 745.65 929.23 746.00 931.00
C 735.76 928.82 722.24 929.72 714.00 932.00
C 715.08 933.99 714.11 939.96 712.00 936.00
C 712.44 941.87 714.09 945.29 717.00 949.00
C 727.33 950.30 741.71 950.06 754.00 950.00
C 750.95 941.49 758.57 926.41 751.74 920.26 C 744.91 914.10 724.89 920.19 716.00 918.00
C 716.24 920.39 715.29 923.29 717.00 925.00
M 746.00 937.00 
C 747.11 948.59 729.45 940.68 722.00 943.00
C 721.17 941.09 721.39 939.38 721.00 937.00
C 728.53 937.32 737.78 936.77 746.00 937.00 Z"/>
</g>
<g fill="#000000" fill-opacity="0.91" stroke="None">
<path d="
M 821.00 949.00 
C 824.91 948.91 830.32 947.58 835.00 948.00
C 844.15 964.21 809.38 945.72 814.00 962.00
C 822.94 962.27 832.73 961.61 841.00 962.00
C 839.45 960.07 842.38 958.35 844.00 958.00
C 842.41 945.23 842.29 930.77 844.00 918.00
C 834.67 918.00 825.33 918.00 816.00 918.00
C 809.45 924.35 804.83 928.38 806.65 937.31 C 808.46 946.23 813.61 947.47 821.00 949.00
M 837.00 925.00 
C 836.78 932.56 839.87 943.88 830.00 943.00 C 820.12 942.12 819.78 943.10 814.00 938.00
C 815.37 932.00 814.23 929.29 818.00 925.00
C 823.86 926.38 831.19 926.81 837.00 925.00 Z"/>
</g>
<g fill="#000000" fill-opacity="0.93" stroke="None">
<path d="
M 864.00 948.00 
C 872.85 948.36 882.98 946.89 891.00 949.00
C 893.13 947.62 891.48 944.19 892.00 942.00
C 882.58 943.74 871.45 943.54 862.00 942.00
C 863.17 938.56 859.18 939.97 860.00 936.00
C 868.35 934.97 878.89 937.03 886.77 936.77 C 894.66 936.51 892.66 926.32 893.00 922.00
C 891.17 923.59 886.34 919.71 888.00 918.00
C 877.13 918.49 858.18 915.48 852.59 925.25 C 847.01 935.03 850.99 947.46 864.00 948.00
M 884.00 924.00 
C 887.97 936.63 867.29 928.88 860.00 931.00
C 861.35 922.28 875.13 924.28 884.00 924.00 Z"/>
</g>
<g fill="#000000" fill-opacity="0.91" stroke="None">
<path d="
M 985.00 948.00 
C 986.73 946.98 990.12 948.77 992.00 948.00
C 992.00 940.33 992.00 932.67 992.00 925.00
C 991.63 921.70 987.49 920.70 987.00 918.00
C 978.11 916.67 973.29 919.77 964.00 918.00 C 954.71 916.23 955.31 925.70 956.00 933.00 C 956.69 940.30 952.83 951.03 964.00 948.00
C 964.94 935.42 959.01 923.32 975.00 924.00 C 990.99 924.68 980.42 937.26 985.00 948.00 Z"/>
</g>
<g fill="#000000" fill-opacity="0.93" stroke="None">
<path d="
M 1090.00 949.00 
C 1095.22 949.29 1104.74 948.97 1110.00 949.00
C 1116.41 949.87 1116.08 943.60 1122.00 942.00
C 1120.57 936.13 1122.92 930.80 1122.00 926.00
C 1116.16 923.15 1116.08 917.69 1108.00 919.00 C 1099.92 920.31 1090.02 917.59 1083.75 921.75 C 1077.49 925.92 1077.32 933.91 1078.42 939.23 C 1079.53 944.55 1085.50 947.54 1090.00 949.00
M 1114.00 929.00 
C 1114.47 934.32 1114.39 939.52 1110.00 943.00
C 1098.69 942.52 1084.18 944.32 1086.60 931.26 C 1089.02 918.19 1106.24 924.04 1114.00 929.00 Z"/>
</g>
<g fill="#000000" fill-opacity="0.92" stroke="None">
<path d="
M 1141.00 948.00 
C 1147.32 947.88 1153.68 947.88 1160.00 948.00
C 1163.83 951.17 1162.84 945.34 1166.00 948.00
C 1169.23 942.89 1175.55 937.02 1172.97 929.03 C 1170.40 921.04 1164.81 919.02 1159.00 919.00
C 1153.00 918.98 1147.00 919.11 1141.00 919.00
C 1139.69 918.46 1138.56 917.59 1137.00 918.00
C 1138.95 920.16 1133.61 923.07 1133.00 920.00
C 1129.13 925.91 1129.45 926.17 1128.00 933.00 C 1126.56 939.83 1132.37 941.85 1133.00 947.00
C 1137.68 947.83 1136.88 948.08 1141.00 948.00
M 1159.00 924.00 
C 1153.88 926.98 1165.59 925.05 1163.64 929.70 C 1161.70 934.34 1168.89 933.92 1163.07 940.07 C 1157.26 946.23 1145.09 941.52 1139.00 942.00
C 1138.64 939.10 1133.98 935.26 1136.00 929.00
C 1139.80 930.06 1139.93 924.68 1143.13 924.08 C 1146.33 923.48 1155.27 924.37 1159.00 924.00 Z"/>
</g>
<g fill="#000000" fill-opacity="0.75" stroke="None">
<path d="
M 717.00 925.00 
C 725.61 925.58 734.40 924.22 743.00 925.00
C 738.51 920.38 722.32 925.55 717.00 925.00 Z"/>
</g>
<g fill="#000000" fill-opacity="0.75" stroke="None">
<path d="
M 775.00 925.00 
C 779.96 924.55 785.03 925.34 790.00 925.00
C 788.11 923.11 776.93 923.01 775.00 925.00 Z"/>
</g>
<g fill="#000000" fill-opacity="0.21" stroke="None">
<path d="
M 884.00 924.00 
C 875.13 924.28 861.35 922.28 860.00 931.00
C 867.29 928.88 887.97 936.63 884.00 924.00 Z"/>
</g>
<g fill="#000000" fill-opacity="0.07" stroke="None">
<path d="
M 1114.00 929.00 
C 1106.24 924.04 1089.02 918.19 1086.60 931.26 C 1084.18 944.32 1098.69 942.52 1110.00 943.00
C 1114.39 939.52 1114.47 934.32 1114.00 929.00 Z"/>
</g>
<g fill="#000000" fill-opacity="0.08" stroke="None">
<path d="
M 1159.00 924.00 
C 1155.27 924.37 1146.33 923.48 1143.13 924.08 C 1139.93 924.68 1139.80 930.06 1136.00 929.00
C 1133.98 935.26 1138.64 939.10 1139.00 942.00
C 1145.09 941.52 1157.26 946.23 1163.07 940.07 C 1168.89 933.92 1161.70 934.34 1163.64 929.70 C 1165.59 925.05 1153.88 926.98 1159.00 924.00 Z"/>
</g>
<g fill="#000000" fill-opacity="0.75" stroke="None">
<path d="
M 1193.00 925.00 
C 1197.96 924.55 1203.03 925.34 1208.00 925.00
C 1206.11 923.11 1194.93 923.01 1193.00 925.00 Z"/>
</g>
<g fill="#000000" fill-opacity="0.22" stroke="None">
<path d="
M 743.00 926.00 
C 743.00 926.00 743.25 925.26 743.00 925.00
C 734.40 924.22 725.61 925.58 717.00 925.00
C 720.29 928.29 737.96 926.46 743.00 926.00 Z"/>
</g>
<g fill="#000000" fill-opacity="0.22" stroke="None">
<path d="
M 775.00 926.00 
C 779.73 926.43 786.07 926.51 790.00 925.00
C 785.03 925.34 779.96 924.55 775.00 925.00
C 775.00 925.00 775.21 925.89 775.00 926.00 Z"/>
</g>
<g fill="#000000" fill-opacity="0.04" stroke="None">
<path d="
M 775.00 926.00 
C 772.76 926.22 771.11 929.87 769.00 928.00
C 769.45 931.48 769.38 935.69 769.00 939.00
C 770.73 941.12 772.15 940.86 774.00 941.00
C 779.62 941.43 785.81 939.92 791.00 942.00
C 792.42 939.97 791.46 926.46 790.00 925.00
C 786.07 926.51 779.73 926.43 775.00 926.00 Z"/>
</g>
<g fill="#000000" fill-opacity="0.11" stroke="None">
<path d="
M 837.00 925.00 
C 831.19 926.81 823.86 926.38 818.00 925.00
C 814.23 929.29 815.37 932.00 814.00 938.00
C 819.78 943.10 820.12 942.12 830.00 943.00 C 839.87 943.88 836.78 932.56 837.00 925.00 Z"/>
</g>
<g fill="#000000" fill-opacity="0.60" stroke="None">
<path d="
M 905.00 926.00 
C 903.22 929.59 905.21 938.83 906.00 942.00
C 906.05 937.22 909.48 927.07 905.00 926.00 Z"/>
</g>
<g fill="#030303" fill-opacity="0.44" stroke="None">
<path d="
M 985.00 948.00 
C 986.99 952.66 995.33 950.07 994.00 943.00 C 992.67 935.93 995.12 931.11 992.00 925.00
C 992.00 932.67 992.00 940.33 992.00 948.00
C 990.12 948.77 986.73 946.98 985.00 948.00 Z"/>
</g>
<g fill="#000000" fill-opacity="0.22" stroke="None">
<path d="
M 1193.00 926.00 
C 1197.73 926.43 1204.07 926.51 1208.00 925.00
C 1203.03 925.34 1197.96 924.55 1193.00 925.00
C 1193.00 925.00 1193.15 925.95 1193.00 926.00 Z"/>
</g>
<g fill="#000000" fill-opacity="0.04" stroke="None">
<path d="
M 1193.00 926.00 
C 1183.77 929.03 1184.62 939.76 1192.00 942.00
C 1196.56 942.34 1203.64 939.67 1209.00 941.00
C 1210.18 938.55 1209.66 926.66 1208.00 925.00
C 1204.07 926.51 1197.73 926.43 1193.00 926.00 Z"/>
</g>
<g fill="#000000" fill-opacity="0.13" stroke="None">
<path d="
M 696.00 932.00 
C 693.00 932.00 690.00 932.00 687.00 932.00
C 687.00 935.33 687.00 938.67 687.00 942.00
C 690.00 942.00 693.00 942.00 696.00 942.00
C 696.00 938.67 696.00 935.33 696.00 932.00 Z"/>
</g>
<g fill="#000000" fill-opacity="0.13" stroke="None">
<path d="
M 1061.00 932.00 
C 1058.00 932.00 1055.00 932.00 1052.00 932.00
C 1052.00 935.33 1052.00 938.67 1052.00 942.00
C 1055.00 942.00 1058.00 942.00 1061.00 942.00
C 1061.00 938.67 1061.00 935.33 1061.00 932.00 Z"/>
</g>
<g fill="#000000" fill-opacity="0.16" stroke="None">
<path d="
M 746.00 937.00 
C 737.78 936.77 728.53 937.32 721.00 937.00
C 721.39 939.38 721.17 941.09 722.00 943.00
C 729.45 940.68 747.11 948.59 746.00 937.00 Z"/>
</g>
<g fill="#000000" fill-opacity="0.39" stroke="None">
<path d="
M 791.00 942.00 
C 785.81 939.92 779.62 941.43 774.00 941.00
C 775.92 941.75 788.16 946.05 791.00 942.00 Z"/>
</g>
<g fill="#000000" fill-opacity="0.40" stroke="None">
<path d="
M 1192.00 942.00 
C 1195.66 943.11 1207.09 944.96 1209.00 941.00
C 1203.64 939.67 1196.56 942.34 1192.00 942.00 Z"/>
</g>
<g fill="#000000" fill-opacity="0.74" stroke="None">
<path d="
M 821.00 949.00 
C 825.64 948.68 830.37 949.42 835.00 949.00
C 835.00 949.00 835.04 948.00 835.00 948.00
C 830.32 947.58 824.91 948.91 821.00 949.00 Z"/>
</g>
<g fill="#000000" fill-opacity="0.47" stroke="None">
<path d="
M 891.00 949.00 
C 882.98 946.89 872.85 948.36 864.00 948.00
C 864.60 948.23 871.59 951.75 876.00 950.00 C 880.41 948.25 887.57 952.43 891.00 949.00 Z"/>
</g>
<g fill="#000000" fill-opacity="0.47" stroke="None">
<path d="
M 1090.00 949.00 
C 1095.74 950.86 1104.18 950.21 1110.00 949.00
C 1104.74 948.97 1095.22 949.29 1090.00 949.00 Z"/>
</g>
<g fill="#000000" fill-opacity="0.75" stroke="None">
<path d="
M 1141.00 949.00 
C 1146.99 949.54 1154.02 949.55 1160.00 949.00
C 1160.00 949.00 1160.04 948.00 1160.00 948.00
C 1153.68 947.88 1147.32 947.88 1141.00 948.00
C 1141.00 948.00 1140.75 948.74 1141.00 949.00 Z"/>
</g>
<g fill="#000000" fill-opacity="0.75" stroke="None">
<path d="
M 1224.00 949.00 
C 1235.00 949.00 1246.00 949.00 1257.00 949.00
C 1247.85 950.83 1233.40 944.72 1224.00 949.00 Z"/>
</g>
<g fill="#000000" fill-opacity="0.21" stroke="None">
<path d="
M 835.00 949.00 
C 830.37 949.42 825.64 948.68 821.00 949.00
C 823.91 949.61 832.28 951.82 835.00 949.00 Z"/>
</g>
<g fill="#000000" fill-opacity="0.21" stroke="None">
<path d="
M 1160.00 949.00 
C 1154.02 949.55 1146.99 949.54 1141.00 949.00
C 1143.01 951.07 1157.93 951.14 1160.00 949.00 Z"/>
</g>
<g fill="#000000" fill-opacity="0.22" stroke="None">
<path d="
M 1257.00 949.00 
C 1246.00 949.00 1235.00 949.00 1224.00 949.00
C 1227.08 952.08 1236.53 949.43 1241.00 950.00 C 1245.47 950.57 1253.26 950.71 1257.00 949.00 Z"/>
</g>
<g fill="#000000" fill-opacity="0.99" stroke="None">
<path d="
M 1402.00 1166.00 
C 1401.36 1143.88 1400.00 1119.50 1400.00 1097.00
C 1403.32 1079.54 1396.63 1065.59 1397.00 1050.00 C 1397.37 1034.41 1395.66 1015.50 1395.00 1000.00 C 1394.34 984.51 1394.68 967.85 1393.00 952.00
C 1378.00 952.00 1363.00 952.00 1348.00 952.00
C 1349.83 959.12 1349.00 965.82 1349.00 974.00
C 1349.05 974.25 1351.48 975.92 1351.00 978.00 C 1350.51 980.09 1350.13 981.68 1350.00 983.00
C 1351.38 997.27 1351.64 1011.99 1353.00 1026.00
C 1353.27 1028.82 1353.27 1032.24 1353.00 1035.00
C 1352.61 1049.57 1357.72 1065.06 1357.00 1080.00 C 1356.28 1094.94 1357.50 1112.00 1358.00 1125.00 C 1358.50 1138.00 1365.00 1155.27 1354.00 1163.00
C 1350.80 1174.84 1337.06 1172.99 1323.00 1173.00 C 1308.94 1173.01 1290.94 1172.99 1276.00 1173.00 C 1261.06 1173.01 1244.34 1173.00 1229.00 1173.00 C 1213.66 1173.00 1197.52 1173.00 1182.00 1173.00 C 1166.48 1173.00 1150.60 1173.00 1135.00 1173.00 C 1119.40 1173.00 1103.63 1173.00 1088.00 1173.00 C 1072.37 1173.00 1056.65 1173.00 1041.00 1173.00 C 1025.35 1173.00 1009.65 1173.00 994.00 1173.00 C 978.35 1173.00 962.64 1173.00 947.00 1173.00 C 931.36 1173.00 915.61 1173.01 900.00 1173.00 C 884.39 1172.99 868.56 1173.01 853.00 1173.00 C 837.44 1172.99 822.53 1173.03 807.00 1173.00 C 791.47 1172.97 775.52 1173.07 760.00 1173.00 C 744.48 1172.93 728.41 1173.15 713.00 1173.00 C 697.59 1172.85 681.13 1173.34 666.00 1173.00 C 650.87 1172.66 633.48 1173.75 619.00 1173.00 C 604.52 1172.25 588.75 1175.46 577.92 1171.13 C 567.09 1166.80 563.90 1153.96 566.00 1142.00 C 568.10 1130.04 565.25 1115.63 567.01 1104.01 C 568.77 1092.40 570.14 1078.20 569.00 1065.00 C 567.86 1051.80 574.24 1038.88 572.97 1026.03 C 571.70 1013.19 573.77 1002.60 573.22 989.22 C 572.67 975.84 576.83 965.23 576.00 952.00
C 561.00 952.00 546.00 952.00 531.00 952.00
C 531.05 960.98 531.55 969.02 531.00 978.00 C 530.45 986.98 528.86 995.16 529.00 1004.00 C 529.14 1012.83 528.19 1022.07 528.00 1031.00 C 527.80 1039.93 526.02 1049.84 525.94 1058.92 C 525.85 1068.00 525.92 1077.33 524.80 1085.75 C 523.68 1094.18 524.44 1103.68 523.11 1112.11 C 521.78 1120.54 524.52 1132.32 522.00 1141.00 C 519.47 1149.68 522.55 1156.41 521.00 1163.00
C 526.62 1170.71 524.56 1176.44 529.30 1183.70 C 534.04 1190.95 536.94 1197.08 545.75 1203.25 C 554.57 1209.41 556.49 1209.55 565.71 1213.29 C 574.92 1217.04 586.96 1216.09 600.00 1216.00 C 613.04 1215.91 628.39 1216.04 642.00 1216.00 C 655.61 1215.96 670.09 1216.02 684.00 1216.00 C 697.91 1215.98 712.97 1216.01 727.00 1216.00 C 741.03 1215.99 754.95 1216.00 769.00 1216.00 C 783.05 1216.00 796.89 1216.00 811.00 1216.00 C 825.11 1216.00 839.88 1216.00 854.00 1216.00 C 868.12 1216.00 881.91 1216.00 896.00 1216.00 C 910.09 1216.00 923.88 1216.00 938.00 1216.00 C 952.12 1216.00 966.88 1216.00 981.00 1216.00 C 995.12 1216.00 1008.91 1216.00 1023.00 1216.00 C 1037.09 1216.00 1050.89 1215.99 1065.00 1216.00 C 1079.11 1216.01 1093.90 1215.99 1108.00 1216.00 C 1122.10 1216.01 1135.97 1215.97 1150.00 1216.00 C 1164.03 1216.03 1178.01 1215.93 1192.00 1216.00 C 1205.99 1216.07 1221.17 1215.86 1235.00 1216.00 C 1248.83 1216.15 1263.57 1215.67 1277.00 1216.00 C 1290.43 1216.33 1306.35 1215.27 1319.00 1216.00 C 1331.65 1216.73 1345.43 1215.31 1353.75 1214.20 C 1362.07 1213.09 1367.88 1209.88 1374.75 1205.19 C 1381.63 1200.51 1387.44 1194.91 1391.76 1187.77 C 1396.09 1180.63 1399.95 1177.43 1402.00 1166.00 Z"/>
</g>
<g fill="#000000" fill-opacity="0.37" stroke="None">
<path d="
M 1350.00 983.00 
C 1350.13 981.68 1350.51 980.09 1351.00 978.00 C 1351.48 975.92 1349.05 974.25 1349.00 974.00
C 1349.00 977.09 1349.77 980.58 1350.00 983.00 Z"/>
</g>
<g fill="#000000" fill-opacity="0.88" stroke="None">
<path d="
M 816.00 1013.00 
C 807.54 1012.72 799.00 1017.52 793.39 1024.25 C 787.79 1030.97 790.14 1041.43 795.00 1046.00
C 795.03 1032.00 805.09 1020.73 821.00 1019.00
C 824.12 1013.04 811.87 1016.37 816.00 1013.00 Z"/>
</g>
<g fill="#000000" fill-opacity="0.86" stroke="None">
<path d="
M 1120.00 1016.00 
C 1114.47 1017.48 1115.51 1012.78 1110.01 1013.01 C 1104.51 1013.23 1101.64 1015.30 1098.00 1016.00
C 1104.48 1021.10 1108.79 1019.56 1116.25 1026.75 C 1123.71 1033.95 1125.13 1037.75 1126.00 1046.00
C 1135.27 1037.40 1126.94 1024.38 1120.00 1016.00 Z"/>
</g>
<g fill="#000000" fill-opacity="0.42" stroke="None">
<path d="
M 1353.00 1035.00 
C 1353.27 1032.24 1353.27 1028.82 1353.00 1026.00
C 1352.73 1028.76 1352.73 1032.18 1353.00 1035.00 Z"/>
</g>
<g fill="#000000" fill-opacity="0.91" stroke="None">
<path d="
M 1113.00 1033.00 
C 1110.58 1031.52 1109.72 1031.95 1107.00 1031.00
C 1101.89 1038.77 1088.50 1045.98 1084.75 1050.61 C 1081.00 1055.24 1075.84 1055.41 1071.70 1058.36 C 1067.56 1061.30 1064.45 1064.21 1059.23 1066.79 C 1054.01 1069.36 1050.50 1073.24 1043.92 1073.87 C 1037.33 1074.49 1039.65 1079.19 1032.08 1079.93 C 1024.50 1080.67 1014.05 1087.37 1003.23 1088.78 C 992.40 1090.19 985.15 1092.98 972.00 1094.00 C 958.85 1095.02 940.23 1093.81 931.01 1090.99 C 921.78 1088.18 919.48 1092.91 918.00 1088.00
C 907.51 1088.33 897.47 1083.27 888.75 1080.39 C 880.04 1077.52 872.39 1073.58 864.13 1069.92 C 855.87 1066.26 847.67 1058.69 837.92 1053.13 C 828.16 1047.57 821.41 1040.95 811.00 1032.00
C 808.29 1031.75 808.37 1035.22 806.00 1034.00
C 808.97 1046.80 823.27 1051.46 829.81 1056.75 C 836.36 1062.04 844.65 1068.96 853.75 1073.20 C 862.85 1077.44 867.91 1080.82 876.92 1085.07 C 885.94 1089.32 897.15 1092.61 906.32 1095.66 C 915.50 1098.72 927.68 1099.08 939.78 1100.22 C 951.88 1101.36 969.50 1102.80 981.93 1100.93 C 994.35 1099.05 1005.65 1097.23 1015.70 1094.70 C 1025.74 1092.17 1033.16 1086.31 1041.43 1083.79 C 1049.70 1081.26 1057.81 1075.53 1065.25 1071.39 C 1072.69 1067.25 1082.29 1062.61 1088.25 1056.26 C 1094.20 1049.92 1112.58 1045.66 1113.00 1033.00 Z"/>
</g>
<g fill="#000000" fill-opacity="0.55" stroke="None">
<path d="
M 1402.00 1166.00 
C 1403.94 1155.17 1402.46 1141.52 1403.00 1130.00 C 1403.54 1118.48 1401.93 1106.16 1400.00 1097.00
C 1400.00 1119.50 1401.36 1143.88 1402.00 1166.00 Z"/>
</g>
</svg>